<?xml version="1.0" standalone="no"?>
<!DOCTYPE svg PUBLIC "-//W3C//DTD SVG 20010904//EN"
 "http://www.w3.org/TR/2001/REC-SVG-20010904/DTD/svg10.dtd">
<svg version="1.0" xmlns="http://www.w3.org/2000/svg"
 width="458.000000pt" height="458.000000pt" viewBox="0 0 458.000000 458.000000"
 preserveAspectRatio="xMidYMid meet">
<metadata>
Created by potrace 1.14, written by Peter Selinger 2001-2017
</metadata>
<g transform="translate(0.000000,458.000000) scale(0.100000,-0.100000)"
fill="#000000" stroke="none">
<path d="M890 4378 c-47 -4 -102 -11 -122 -16 -20 -5 -39 -7 -42 -4 -4 3 -6 0
-6 -6 0 -7 -9 -12 -20 -12 -11 0 -20 -4 -20 -10 0 -5 -9 -10 -19 -10 -10 0
-22 -7 -25 -16 -3 -8 -10 -13 -14 -10 -12 7 -139 -118 -139 -137 0 -10 5 -17
10 -17 5 0 -2 -10 -17 -21 -28 -22 -22 -50 6 -33 7 5 19 9 26 10 10 2 11 -1 1
-12 -6 -8 -20 -14 -30 -14 -11 0 -19 -4 -19 -10 0 -5 -4 -10 -10 -10 -5 0 -10
7 -10 15 0 8 -4 15 -9 15 -4 0 -6 -11 -3 -25 2 -14 11 -25 18 -25 8 0 14 -5
14 -11 0 -5 -4 -8 -9 -5 -5 3 -24 -2 -42 -12 -31 -15 -32 -17 -11 -20 26 -4
20 -22 -8 -22 -20 0 -25 -12 -34 -85 -6 -51 -16 -76 -27 -69 -5 3 -5 -6 1 -20
6 -18 6 -26 -1 -26 -6 0 -8 -9 -4 -20 4 -11 -1 -34 -9 -51 -9 -17 -13 -35 -10
-40 3 -5 0 -18 -6 -29 -7 -13 -7 -20 0 -20 11 0 14 -33 3 -44 -10 -10 -19 -81
-26 -209 -2 -37 -8 -62 -17 -68 -8 -5 -10 -9 -4 -9 6 0 10 -13 9 -30 -1 -16 2
-27 7 -24 10 6 11 -10 1 -20 -11 -10 -12 -88 -2 -108 6 -11 4 -18 -5 -21 -13
-5 -14 -29 -1 -78 5 -20 2 -28 -10 -33 -13 -5 -14 -10 -7 -19 6 -7 7 -18 2
-27 -4 -7 -4 -24 1 -37 7 -18 5 -23 -7 -23 -12 0 -14 -3 -6 -12 14 -18 20 -83
7 -81 -14 2 -10 -64 5 -82 11 -14 7 -19 -13 -16 -4 1 -5 -10 -1 -24 3 -14 2
-25 -4 -25 -6 0 -8 -9 -5 -20 3 -11 0 -20 -6 -20 -14 0 -10 -20 7 -39 8 -8 11
-22 7 -35 -4 -12 -7 -32 -7 -46 0 -14 -5 -28 -11 -32 -8 -5 -6 -8 6 -8 19 0
23 -16 5 -22 -6 -2 -13 -23 -14 -46 -1 -35 1 -40 12 -31 11 9 14 7 14 -9 0
-12 -8 -25 -17 -30 -15 -9 -15 -12 0 -43 8 -19 12 -36 8 -39 -4 -3 -8 -14 -8
-25 -2 -56 -12 -106 -23 -120 -7 -9 -10 -18 -7 -22 4 -3 10 2 13 11 5 14 9 15
15 4 11 -17 11 -31 0 -24 -13 8 -21 -20 -10 -31 6 -6 2 -19 -11 -36 -19 -24
-13 -46 9 -33 5 4 7 -3 4 -14 -3 -11 -9 -20 -14 -20 -5 0 -4 -11 1 -25 8 -20
5 -27 -13 -40 -12 -8 -17 -15 -12 -15 6 0 10 -23 10 -51 0 -36 5 -55 17 -63
14 -10 14 -14 2 -31 -16 -22 -19 -65 -4 -65 6 0 10 -7 10 -16 0 -11 -6 -14
-20 -9 -11 4 -20 2 -20 -4 0 -6 7 -11 15 -11 8 0 15 -5 15 -11 0 -5 -5 -7 -11
-3 -8 5 -8 1 0 -14 9 -16 7 -21 -6 -27 -11 -4 -14 -9 -7 -13 6 -4 11 -14 11
-22 0 -8 3 -25 7 -37 5 -15 3 -23 -4 -23 -7 0 -9 -7 -6 -16 3 -8 2 -12 -4 -9
-15 9 -12 -22 5 -55 8 -16 12 -36 8 -45 -3 -10 -1 -20 5 -24 8 -5 7 -14 -3
-34 -12 -24 -12 -28 3 -37 16 -9 16 -11 -1 -24 -11 -8 -26 -12 -35 -8 -16 5
-16 4 0 -11 9 -9 24 -14 32 -11 25 10 19 -17 -11 -49 -26 -26 -27 -29 -10 -38
19 -11 23 -44 6 -54 -7 -5 -5 -13 6 -25 11 -13 13 -20 5 -25 -6 -4 -9 -13 -6
-20 2 -7 -2 -16 -11 -19 -15 -6 -14 -8 1 -19 20 -15 27 -73 9 -70 -17 4 -17
-49 -1 -65 9 -9 8 -12 -4 -12 -9 0 -18 -6 -21 -13 -4 -10 2 -13 18 -9 21 4 23
0 22 -32 -1 -26 -5 -35 -14 -32 -14 6 -16 -3 -7 -28 3 -9 9 -14 13 -12 4 3 7
-4 8 -14 2 -29 -16 -35 -25 -9 -7 19 -10 20 -15 6 -4 -10 -2 -17 3 -17 6 0 10
-9 10 -21 0 -12 13 -38 29 -58 20 -25 28 -45 26 -66 -2 -16 1 -35 7 -42 8 -10
7 -13 -3 -13 -9 -1 -8 -5 5 -15 11 -8 17 -15 13 -15 -4 0 2 -18 13 -40 11 -22
19 -43 18 -47 -2 -5 1 -9 6 -10 17 -3 26 -28 13 -38 -26 -20 -26 -42 -1 -66
13 -12 24 -19 24 -15 0 4 7 1 15 -8 19 -19 19 -27 0 -20 -9 4 -15 0 -15 -10 0
-10 8 -15 23 -13 18 2 22 -3 22 -28 0 -17 5 -33 10 -37 6 -4 943 -8 2083 -8
l2073 0 10 30 c6 16 15 28 21 27 6 -1 12 6 13 16 3 14 1 16 -10 7 -8 -7 -18
-9 -23 -6 -5 3 -15 -6 -22 -19 -19 -36 -31 -31 -14 5 17 32 34 48 34 30 0 -6
5 -8 10 -5 6 3 10 15 10 26 0 10 5 19 10 19 15 0 12 68 -2 73 -10 4 -10 7 -1
18 19 19 19 2035 1 2042 -10 4 -10 7 0 18 16 17 16 59 0 59 -10 0 -10 2 0 8
14 9 13 232 -1 232 -5 0 -6 14 -3 30 2 17 0 28 -5 24 -17 -10 -9 49 9 62 16
12 16 14 0 30 -15 16 -15 19 -1 41 16 24 16 25 -7 21 -13 -1 -25 3 -27 10 -3
6 2 12 11 12 20 0 20 19 0 48 -8 12 -11 22 -7 22 5 0 9 25 9 56 1 50 -1 55
-18 51 -15 -4 -17 -3 -8 8 7 8 9 24 5 37 -5 18 -4 20 4 8 6 -8 11 -10 12 -5 0
6 2 20 5 33 2 13 1 21 -3 19 -5 -3 -8 9 -8 26 1 18 -7 45 -17 61 -17 29 -15
52 3 41 5 -4 9 5 9 19 0 14 -5 28 -11 31 -6 4 -8 13 -5 21 3 8 1 14 -4 14 -6
0 -10 14 -10 30 0 22 5 30 18 31 13 0 12 3 -6 11 -15 7 -20 17 -17 28 3 10 -4
39 -15 65 -12 27 -18 55 -16 62 3 8 -1 16 -10 20 -13 5 -13 7 -2 14 10 7 10 9
1 9 -7 0 -13 6 -13 14 0 8 -5 27 -11 43 -6 15 -10 30 -9 33 1 2 -8 7 -19 12
-12 4 -29 24 -39 45 -9 21 -20 40 -24 41 -5 2 -8 10 -8 18 0 8 -7 14 -16 14
-11 0 -13 6 -9 19 3 12 0 23 -8 28 -8 4 -24 26 -36 48 -11 22 -21 36 -21 32 0
-4 -9 -3 -21 3 -11 7 -18 14 -16 17 3 2 -2 13 -11 22 -32 33 -61 70 -89 112
-26 40 -64 65 -92 60 -11 -2 -10 1 3 14 22 22 20 42 -5 50 -11 4 -18 13 -15
20 7 20 -39 54 -64 48 -19 -5 -21 -3 -16 15 6 18 2 22 -28 27 -24 5 -33 11
-29 21 3 9 -2 14 -14 14 -10 0 -24 5 -30 11 -5 5 -28 12 -49 14 -21 2 -61 8
-88 13 -66 13 -886 14 -886 1 0 -6 -6 -6 -18 0 -22 12 -94 10 -103 -2 -4 -5
-16 -3 -28 5 -18 10 -23 11 -30 0 -6 -10 -14 -10 -35 -2 -17 6 -34 7 -44 1 -9
-5 -26 -5 -40 0 -14 6 -31 5 -43 -1 -10 -6 -19 -7 -19 -3 0 4 -56 8 -125 8
-96 0 -125 -3 -125 -13 0 -10 -5 -10 -22 2 -15 11 -25 12 -34 5 -8 -7 -14 -7
-19 1 -5 8 -11 8 -20 0 -8 -7 -20 -8 -27 -3 -16 10 -1046 11 -1168 1z m567
-40 c-3 -8 -6 -5 -6 6 -1 11 2 17 5 13 3 -3 4 -12 1 -19z m808 12 c-3 -5 -11
-10 -16 -10 -6 0 -7 5 -4 10 3 6 11 10 16 10 6 0 7 -4 4 -10z m75 6 c0 -3 -4
-8 -10 -11 -5 -3 -10 -1 -10 4 0 6 5 11 10 11 6 0 10 -2 10 -4z m-350 -16 c0
-5 -2 -10 -4 -10 -3 0 -8 5 -11 10 -3 6 -1 10 4 10 6 0 11 -4 11 -10z m158 -7
c-2 -9 -8 -18 -15 -20 -7 -3 -9 3 -6 16 6 25 26 28 21 4z m101 -36 c-2 -2 -13
-9 -24 -17 -18 -14 -19 -13 -7 1 10 13 9 19 -3 29 -8 7 -15 20 -15 29 0 11 7
8 26 -12 14 -16 24 -29 23 -30z m1001 43 c0 -5 -4 -10 -10 -10 -5 0 -10 5 -10
10 0 6 5 10 10 10 6 0 10 -4 10 -10z m115 0 c3 -5 1 -10 -4 -10 -6 0 -11 5
-11 10 0 6 2 10 4 10 3 0 8 -4 11 -10z m-1575 -10 c13 -9 13 -11 0 -19 -17
-12 -30 -5 -30 15 0 16 9 18 30 4z m766 -35 c1 -14 -1 -25 -6 -25 -8 0 -20 34
-20 60 0 24 23 -6 26 -35z m95 -12 c15 -4 17 -8 8 -19 -6 -8 -8 -14 -5 -14 4
0 -2 -10 -14 -22 -11 -12 -23 -18 -27 -15 -3 4 2 13 12 21 17 12 17 14 -5 44
-20 27 -21 33 -9 48 13 16 14 15 17 -10 2 -18 11 -30 23 -33z m309 49 c0 -4
-6 -14 -12 -20 -10 -10 -10 -15 2 -22 8 -5 11 -12 7 -16 -4 -4 -15 0 -25 10
-12 13 -13 20 -5 23 7 2 9 11 6 19 -3 8 1 14 11 14 9 0 16 -4 16 -8z m-1405
-12 c3 -5 1 -10 -4 -10 -6 0 -11 5 -11 10 0 6 2 10 4 10 3 0 8 -4 11 -10z
m365 -25 c0 -19 -24 -35 -39 -26 -9 6 -7 10 8 14 21 5 30 27 11 27 -5 0 -10 5
-10 11 0 8 5 8 15 -1 8 -7 15 -18 15 -25z m1110 20 c0 -9 -6 -12 -15 -9 -8 4
-12 10 -9 15 8 14 24 10 24 -6z m-975 -6 c10 -16 5 -19 -45 -28 -3 -1 2 -6 10
-11 10 -7 11 -10 2 -10 -22 0 -26 30 -6 45 23 17 31 18 39 4z m309 2 c3 -5 -1
-14 -9 -21 -13 -10 -15 -9 -15 9 0 21 14 28 24 12z m373 3 c-3 -3 -12 -4 -19
-1 -8 3 -5 6 6 6 11 1 17 -2 13 -5z m-226 -14 c5 0 9 -7 9 -15 0 -19 -17 -19
-36 -1 -19 19 -18 30 2 22 9 -3 20 -6 25 -6z m649 0 c0 -5 -4 -10 -10 -10 -5
0 -10 5 -10 10 0 6 5 10 10 10 6 0 10 -4 10 -10z m400 0 c0 -5 -5 -10 -11 -10
-5 0 -7 5 -4 10 3 6 8 10 11 10 2 0 4 -4 4 -10z m-2432 -25 c-3 -3 -9 2 -12
12 -6 14 -5 15 5 6 7 -7 10 -15 7 -18z m500 7 c6 -18 -15 -14 -22 4 -4 10 -1
14 6 12 6 -2 14 -10 16 -16z m222 4 c0 -8 -4 -18 -10 -21 -5 -3 -10 3 -10 14
0 12 5 21 10 21 6 0 10 -6 10 -14z m123 0 c3 -8 3 -17 0 -20 -7 -7 -33 13 -33
25 0 15 27 10 33 -5z m133 2 c4 -6 0 -16 -8 -22 -9 -6 -18 -20 -21 -31 -4 -18
-5 -18 -6 2 0 12 4 25 10 28 6 4 8 13 5 21 -6 17 10 19 20 2z m216 -3 c11 -14
10 -25 -3 -25 -5 0 -7 5 -4 10 3 6 -2 10 -12 10 -10 0 -25 5 -33 10 -11 7 -7
9 15 7 17 -1 33 -6 37 -12z m96 3 c-6 -18 -28 -21 -28 -4 0 9 7 16 16 16 9 0
14 -5 12 -12z m777 3 c3 -5 1 -12 -5 -16 -5 -3 -10 1 -10 9 0 18 6 21 15 7z
m95 -6 c0 -8 5 -15 11 -15 5 0 7 -5 4 -10 -4 -7 -13 -4 -23 8 -10 10 -24 21
-32 25 -9 3 -4 6 13 6 18 1 27 -4 27 -14z m100 0 c10 -13 9 -15 -9 -15 -12 0
-21 6 -21 15 0 8 4 15 9 15 5 0 14 -7 21 -15z m-2660 -5 c0 -5 -5 -10 -11 -10
-5 0 -7 5 -4 10 3 6 8 10 11 10 2 0 4 -4 4 -10z m1069 -4 c9 -10 8 -15 -4 -20
-8 -3 -15 -4 -15 -2 0 3 -3 11 -6 20 -8 20 9 21 25 2z m1051 4 c0 -5 -4 -10
-10 -10 -5 0 -10 5 -10 10 0 6 5 10 10 10 6 0 10 -4 10 -10z m-1330 -12 c0 -4
-4 -8 -9 -8 -6 0 -12 4 -15 8 -3 5 1 9 9 9 8 0 15 -4 15 -9z m1567 6 c-3 -3
-12 -4 -19 -1 -8 3 -5 6 6 6 11 1 17 -2 13 -5z m-612 -15 c-4 -6 -10 -8 -13
-5 -3 3 -11 1 -18 -5 -14 -11 -34 -4 -34 12 0 5 16 9 36 9 22 0 33 -4 29 -11z
m330 1 c3 -5 -1 -10 -9 -10 -9 0 -16 5 -16 10 0 6 4 10 9 10 6 0 13 -4 16 -10z
m332 -27 c-3 -10 -5 -4 -5 12 0 17 2 24 5 18 2 -7 2 -21 0 -30z m-2532 17 c3
-5 1 -10 -4 -10 -6 0 -11 5 -11 10 0 6 2 10 4 10 3 0 8 -4 11 -10z m1271 -1
c3 -6 0 -15 -7 -20 -14 -8 -32 9 -23 23 7 11 22 10 30 -3z m-1076 -14 c-7 -8
-17 -15 -22 -15 -11 0 14 29 26 30 5 0 3 -7 -4 -15z m104 1 c-3 -8 -12 -12
-20 -9 -17 6 -9 23 11 23 8 0 12 -6 9 -14z m726 4 c0 -5 -2 -10 -4 -10 -3 0
-8 5 -11 10 -3 6 -1 10 4 10 6 0 11 -4 11 -10z m319 1 c8 -5 24 -6 37 -1 19 7
21 6 17 -11 -5 -16 -11 -19 -32 -14 -14 3 -33 13 -41 21 -16 15 -3 19 19 5z
m253 -19 c-7 -2 -12 -10 -12 -17 0 -25 -27 -24 -39 1 -13 29 -35 22 -26 -7 4
-13 2 -19 -8 -19 -21 0 -19 47 3 53 9 2 24 1 32 -4 9 -5 22 -3 34 6 13 9 20
10 23 2 2 -6 -1 -13 -7 -15z m178 24 c0 -11 -19 -15 -25 -6 -3 5 1 10 9 10 9
0 16 -2 16 -4z m189 -11 c6 -7 -63 -75 -76 -75 -23 0 -14 37 13 49 23 10 24
14 13 28 -13 15 -11 16 16 9 16 -4 32 -9 34 -11z m180 1 c9 -10 7 -17 -6 -27
-12 -10 -15 -11 -9 -1 4 7 2 19 -4 27 -7 9 -8 15 -2 15 5 0 15 -6 21 -14z
m211 6 c0 -14 -36 -52 -49 -52 -21 0 -11 20 14 30 14 5 25 14 25 20 0 5 2 10
5 10 3 0 5 -4 5 -8z m116 -7 c-21 -16 -32 -13 -21 4 3 6 14 11 23 11 15 -1 15
-2 -2 -15z m101 -22 c-8 -8 -21 -13 -29 -10 -9 4 -6 8 10 12 12 4 22 15 23 24
0 11 2 12 6 3 3 -8 -2 -21 -10 -29z m403 27 c0 -5 -2 -10 -4 -10 -3 0 -8 5
-11 10 -3 6 -1 10 4 10 6 0 11 -4 11 -10z m-2540 -10 c0 -5 -5 -10 -11 -10 -5
0 -7 5 -4 10 3 6 8 10 11 10 2 0 4 -4 4 -10z m670 -20 c4 0 10 6 13 14 4 11
32 14 57 7 3 -1 -10 -11 -27 -22 -18 -12 -33 -27 -33 -35 0 -8 -3 -14 -7 -14
-13 0 -29 44 -24 65 4 17 5 18 9 3 2 -10 7 -18 12 -18z m1170 20 c0 -5 -5 -10
-11 -10 -5 0 -7 5 -4 10 3 6 8 10 11 10 2 0 4 -4 4 -10z m355 0 c3 -5 1 -10
-4 -10 -6 0 -11 5 -11 10 0 6 2 10 4 10 3 0 8 -4 11 -10z m-2502 -25 c16 -22
16 -25 2 -25 -9 0 -14 4 -11 9 3 5 -1 11 -9 15 -8 3 -15 10 -15 16 0 17 14 11
33 -15z m221 10 c3 -8 1 -15 -4 -15 -6 0 -10 7 -10 15 0 8 2 15 4 15 2 0 6 -7
10 -15z m186 0 c-7 -9 -15 -13 -17 -11 -7 7 7 26 19 26 6 0 6 -6 -2 -15z
m1360 5 c0 -5 -2 -10 -4 -10 -3 0 -8 5 -11 10 -3 6 -1 10 4 10 6 0 11 -4 11
-10z m544 -26 c3 -7 -5 -9 -22 -6 -27 5 -27 5 -8 -17 17 -19 17 -21 3 -21 -16
0 -19 8 -19 45 0 32 2 35 22 23 11 -7 22 -18 24 -24z m316 27 c0 -17 -12 -41
-21 -41 -10 0 -12 33 -2 43 9 10 23 9 23 -2z m102 2 c-6 -3 -10 -9 -6 -14 3
-5 0 -9 -5 -9 -6 0 -11 4 -11 9 0 5 -8 11 -17 14 -10 2 -2 4 17 4 19 0 29 -2
22 -4z m-1892 -19 c0 -8 -5 -12 -10 -9 -6 4 -8 11 -5 16 9 14 15 11 15 -7z
m75 6 c3 -5 1 -10 -4 -10 -6 0 -11 5 -11 10 0 6 2 10 4 10 3 0 8 -4 11 -10z
m415 -10 l20 -20 -21 0 c-22 0 -52 24 -42 34 11 10 22 7 43 -14z m248 8 c-3
-8 -22 -13 -46 -14 -48 0 -52 3 -19 16 33 13 69 12 65 -2z m82 3 c0 -16 -41
-40 -57 -34 -10 4 -7 10 14 24 32 20 43 23 43 10z m60 -16 c0 -21 -4 -25 -25
-22 -29 4 -46 17 -21 17 9 0 19 7 22 15 10 24 24 17 24 -10z m157 10 c8 -9 13
-18 11 -21 -9 -9 -38 8 -38 22 0 18 8 18 27 -1z m103 -17 c0 -5 -9 -8 -19 -8
-11 0 -21 -6 -24 -12 -2 -7 -7 -10 -11 -7 -4 4 3 18 16 32 21 23 37 21 38 -5z
m413 6 c-4 -10 -9 -12 -15 -6 -12 12 -1 35 12 27 5 -3 6 -13 3 -21z m-2549 1
c-4 -8 -10 -12 -15 -9 -14 8 -10 24 6 24 9 0 12 -6 9 -15z m1370 8 c4 -5 11
-8 14 -8 20 -2 52 -18 52 -26 0 -13 -11 -11 -30 6 -15 13 -18 11 -30 -20 -14
-36 -30 -47 -30 -20 0 8 5 15 10 15 6 0 10 9 10 20 0 11 -4 20 -10 20 -5 0
-10 5 -10 10 0 12 13 13 24 3z m903 1 c-3 -3 -12 -4 -19 -1 -8 3 -5 6 6 6 11
1 17 -2 13 -5z m450 0 c-3 -3 -12 -4 -19 -1 -8 3 -5 6 6 6 11 1 17 -2 13 -5z
m-2492 -14 c3 -5 -1 -10 -9 -10 -9 0 -16 5 -16 10 0 6 4 10 9 10 6 0 13 -4 16
-10z m285 0 c0 -5 -4 -10 -10 -10 -5 0 -10 5 -10 10 0 6 5 10 10 10 6 0 10 -4
10 -10z m702 -13 c-12 -6 -22 -16 -22 -24 0 -13 -12 -18 -22 -8 -10 11 36 53
51 47 11 -4 10 -8 -7 -15z m108 3 c0 -11 -2 -20 -4 -20 -2 0 -6 9 -9 20 -3 11
-1 20 4 20 5 0 9 -9 9 -20z m-980 -11 c0 -5 -4 -9 -10 -9 -5 0 -10 7 -10 16 0
8 5 12 10 9 6 -3 10 -10 10 -16z m267 15 c-3 -3 -12 -4 -19 -1 -8 3 -5 6 6 6
11 1 17 -2 13 -5z m350 0 c-3 -3 -12 -4 -19 -1 -8 3 -5 6 6 6 11 1 17 -2 13
-5z m329 -11 c-1 -22 -26 -42 -43 -36 -7 3 -13 0 -13 -7 0 -6 -4 -8 -10 -5
-22 14 -10 35 20 35 20 0 30 5 30 15 0 8 4 15 9 15 5 0 8 -8 7 -17z m-1171 -3
c3 -5 1 -10 -4 -10 -6 0 -11 5 -11 10 0 6 2 10 4 10 3 0 8 -4 11 -10z m955 -3
c0 -14 -20 -37 -32 -37 -12 0 -10 19 5 35 15 18 27 19 27 2z m937 -2 c2 -5 -8
-11 -22 -11 -16 -1 -25 3 -25 13 0 16 41 15 47 -2z m193 -1 c0 -8 -4 -12 -10
-9 -5 3 -10 10 -10 16 0 5 5 9 10 9 6 0 10 -7 10 -16z m710 6 c0 -5 -4 -10
-10 -10 -5 0 -10 5 -10 10 0 6 5 10 10 10 6 0 10 -4 10 -10z m-1900 -16 c0 -8
-5 -12 -10 -9 -6 4 -8 11 -5 16 9 14 15 11 15 -7z m93 -16 c6 -40 4 -43 -20
-29 -11 7 -13 11 -4 11 9 0 11 8 7 25 -4 14 -2 25 3 25 5 0 11 -15 14 -32z
m1184 26 c13 -4 20 -10 17 -15 -3 -5 -10 -6 -16 -3 -6 4 -14 1 -18 -6 -9 -15
-30 -4 -30 16 0 15 12 17 47 8z m-2257 -14 c0 -5 -4 -10 -9 -10 -6 0 -13 5
-16 10 -3 6 1 10 9 10 9 0 16 -4 16 -10z m400 0 c0 -5 -4 -10 -10 -10 -5 0
-10 5 -10 10 0 6 5 10 10 10 6 0 10 -4 10 -10z m1417 -10 c23 -6 55 -10 72
-10 16 0 33 -4 36 -10 3 -5 19 -10 36 -10 16 0 37 -4 47 -9 51 -28 193 -82
202 -76 5 3 7 0 4 -8 -3 -10 10 -21 40 -35 55 -26 184 -152 256 -249 29 -40
57 -73 61 -73 5 0 9 -7 9 -16 0 -8 11 -35 25 -60 14 -25 25 -51 25 -59 0 -8 5
-15 10 -15 6 0 10 -8 10 -18 0 -10 4 -22 8 -28 10 -11 28 -67 37 -114 4 -19
11 -39 15 -45 14 -18 22 -246 11 -320 -20 -128 -32 -189 -41 -200 -5 -5 -14
-32 -20 -58 -7 -26 -16 -47 -21 -47 -5 0 -9 -9 -9 -20 0 -11 -4 -20 -10 -20
-5 0 -10 -7 -10 -15 0 -8 -4 -15 -10 -15 -5 0 -10 -5 -10 -12 0 -6 -11 -26
-25 -44 -14 -18 -25 -35 -25 -39 0 -6 -51 -65 -90 -102 -14 -14 -45 -39 -70
-56 -25 -17 -46 -34 -48 -39 -2 -4 -9 -8 -15 -8 -7 -1 -26 -13 -44 -28 -32
-28 -32 -29 -33 -122 -2 -158 -6 -177 -53 -208 -22 -15 -48 -31 -58 -37 -12
-6 -19 -21 -20 -40 l0 -30 -10 25 c-10 25 -10 25 -22 4 -7 -12 -17 -19 -22
-17 -16 5 -55 -35 -55 -57 0 -10 -3 -26 -7 -36 -5 -13 -3 -16 10 -11 19 7 23
-8 6 -19 -7 -4 -8 -20 -4 -42 4 -19 7 -140 7 -269 0 -215 1 -236 20 -275 12
-24 23 -37 25 -30 9 25 21 11 21 -25 0 -20 6 -42 14 -47 17 -14 20 -26 26
-118 4 -69 2 -81 -21 -120 -24 -41 -105 -98 -140 -98 -12 0 -54 -17 -97 -39
-13 -7 -36 -42 -71 -108 -15 -28 -58 -43 -123 -43 -85 0 -125 10 -123 30 0 10
-8 43 -18 74 -15 44 -23 55 -36 51 -10 -3 -20 -1 -24 5 -3 5 -26 10 -50 10
-24 0 -47 5 -50 10 -3 6 -17 10 -31 10 -50 0 -100 36 -128 92 -21 42 -26 66
-26 127 0 68 21 156 40 171 4 3 13 20 21 38 8 17 17 32 20 32 14 0 21 118 25
388 3 185 1 282 -6 282 -5 0 -10 -10 -10 -22 l0 -22 -16 22 c-8 12 -12 27 -8
34 5 8 0 9 -14 6 -14 -4 -25 -1 -30 8 -5 8 -24 22 -42 32 -74 37 -114 141
-109 283 l3 79 -39 33 c-61 50 -199 188 -227 227 -38 51 -104 172 -129 238 -5
12 -13 32 -18 45 -6 12 -12 40 -15 62 -3 22 -10 72 -16 110 -14 84 -18 235 -8
241 5 3 8 25 8 49 0 24 5 47 11 51 7 4 9 22 5 48 -12 80 -12 91 -4 103 6 7 2
16 -9 23 -13 8 -14 13 -5 16 6 3 12 17 12 30 0 13 5 24 10 24 12 0 30 41 23
53 -3 4 -11 3 -19 -4 -11 -9 -14 -8 -14 4 0 23 28 43 42 29 17 -17 28 -15 28
4 0 8 -4 13 -9 9 -17 -10 -21 12 -6 25 8 7 15 19 15 26 0 8 5 14 11 14 6 0 8
9 4 20 -4 12 -2 20 6 20 11 0 10 -18 -7 -84 -4 -16 -2 -26 5 -26 20 0 12 -48
-9 -55 -12 -4 -19 -14 -18 -23 2 -12 -3 -16 -17 -14 -16 3 -18 1 -8 -9 18 -18
16 -30 -3 -27 -10 2 -19 -3 -21 -9 -3 -7 0 -13 6 -13 6 0 11 -11 11 -25 0 -14
5 -25 10 -25 6 0 10 8 10 17 0 16 47 121 60 133 3 3 12 19 20 35 8 17 18 32
21 35 3 3 14 20 23 38 9 17 21 32 26 32 19 0 10 28 -10 33 -22 6 -28 -8 -7
-16 8 -3 1 -15 -19 -35 -18 -16 -34 -36 -37 -43 -4 -11 -7 -12 -18 -1 -10 9
-10 12 0 12 7 0 10 4 6 9 -3 5 2 16 10 24 8 9 15 28 15 42 0 18 6 29 20 32 11
3 20 9 20 14 0 5 6 9 14 9 8 0 17 12 20 26 5 17 12 24 22 20 17 -7 57 30 48
45 -3 6 4 13 16 16 13 3 19 11 16 19 -3 9 2 14 14 14 24 0 26 -24 4 -42 -33
-28 -94 -92 -94 -100 0 -20 24 -4 80 52 33 33 62 60 65 60 2 0 28 15 57 33 56
36 261 137 276 137 5 0 38 9 73 21 101 33 303 42 406 19z m313 6 c0 -8 3 -22
6 -30 4 -11 2 -15 -7 -11 -14 5 -20 55 -6 55 4 0 7 -6 7 -14z m357 8 c-3 -3
-12 -4 -19 -1 -8 3 -5 6 6 6 11 1 17 -2 13 -5z m139 -41 c-9 -10 -44 22 -38
35 4 12 9 10 24 -8 10 -13 17 -25 14 -27z m-2579 15 c-3 -8 -6 -5 -6 6 -1 11
2 17 5 13 3 -3 4 -12 1 -19z m223 -4 c0 -14 -4 -23 -10 -19 -5 3 -10 15 -10
26 0 10 5 19 10 19 6 0 10 -12 10 -26z m510 16 c0 -5 -4 -10 -10 -10 -5 0 -10
5 -10 10 0 6 5 10 10 10 6 0 10 -4 10 -10z m510 -5 c0 -8 -4 -15 -10 -15 -5 0
-10 7 -10 15 0 8 5 15 10 15 6 0 10 -7 10 -15z m-856 -46 c-3 -70 -14 -75 -14
-6 0 32 4 57 8 57 5 0 8 -23 6 -51z m521 26 c31 -30 31 -36 0 -69 -14 -15 -25
-36 -25 -47 0 -21 -24 -52 -33 -43 -5 5 -61 14 -109 17 -29 2 -51 16 -27 18
15 1 30 3 80 14 30 7 32 6 21 -8 -12 -14 -9 -16 18 -15 28 1 31 4 27 25 -3 15
0 23 10 23 8 0 17 9 20 19 3 11 12 22 21 26 10 3 12 9 7 13 -17 12 -48 52 -41
52 4 0 18 -11 31 -25z m175 -6 c0 -18 -18 -9 -23 12 -4 16 -3 18 9 8 8 -6 14
-15 14 -20z m914 16 c-4 -8 -10 -12 -15 -9 -14 8 -10 24 6 24 9 0 12 -6 9 -15z
m139 1 c21 -16 22 -36 2 -36 -8 0 -15 9 -15 19 0 11 -6 22 -12 24 -7 3 -8 6
-3 6 6 0 18 -6 28 -13z m277 -17 c0 -20 -15 -26 -24 -10 -8 13 4 42 15 35 5
-3 9 -14 9 -25z m70 10 c0 -5 -4 -9 -10 -9 -5 0 -10 -7 -10 -16 0 -8 -4 -13
-9 -10 -14 9 -1 55 15 49 8 -3 14 -9 14 -14z m-2570 1 c0 -5 -5 -10 -11 -10
-5 0 -7 5 -4 10 3 6 8 10 11 10 2 0 4 -4 4 -10z m255 -11 c-4 -5 -13 -9 -22
-9 -13 0 -13 3 -3 15 13 15 35 11 25 -6z m110 11 c3 -5 1 -10 -4 -10 -6 0 -11
5 -11 10 0 6 2 10 4 10 3 0 8 -4 11 -10z m255 0 c0 -5 -5 -10 -11 -10 -5 0 -7
5 -4 10 3 6 8 10 11 10 2 0 4 -4 4 -10z m301 -2 c0 -10 2 -10 6 0 2 6 9 10 13
7 11 -7 -9 -55 -22 -55 -4 0 -8 3 -8 8 0 4 -3 17 -6 30 -4 13 -2 22 5 22 6 0
11 -6 12 -12z m342 -13 c-21 -16 -26 -14 -17 8 3 9 12 13 20 10 12 -4 11 -8
-3 -18z m-1057 -9 c10 -22 9 -24 -8 -17 -11 4 -19 10 -19 14 1 4 1 12 1 17 0
18 15 10 26 -14z m194 9 c10 -12 10 -15 -4 -15 -9 0 -16 7 -16 15 0 8 2 15 4
15 2 0 9 -7 16 -15z m267 -7 c-3 -8 -6 -5 -6 6 -1 11 2 17 5 13 3 -3 4 -12 1
-19z m536 7 c-3 -9 2 -22 12 -29 12 -9 14 -15 7 -20 -12 -7 -45 47 -35 58 12
12 22 6 16 -9z m937 11 c0 -3 -4 -8 -10 -11 -5 -3 -10 -1 -10 4 0 6 5 11 10
11 6 0 10 -2 10 -4z m188 -3 c-10 -2 -18 -13 -18 -24 0 -10 -4 -19 -10 -19
-14 0 -12 37 3 43 6 3 19 5 27 5 10 0 9 -2 -2 -5z m102 1 c0 -16 -23 -44 -35
-44 -20 0 -19 20 3 36 18 14 32 18 32 8z m-2313 -19 c8 -22 -6 -33 -17 -15
-13 20 -12 30 0 30 6 0 13 -7 17 -15z m2603 5 c0 -5 -5 -10 -11 -10 -5 0 -7 5
-4 10 3 6 8 10 11 10 2 0 4 -4 4 -10z m-1622 -26 c7 4 12 1 12 -8 0 -8 -6 -16
-12 -18 -17 -6 -38 16 -38 38 0 17 1 17 13 -1 8 -10 19 -15 25 -11z m2416 -5
c-6 -11 -24 -2 -24 11 0 5 7 7 15 4 8 -4 12 -10 9 -15z m-2954 -3 c0 -17 -25
-15 -42 2 -9 9 -6 12 15 12 17 0 27 -5 27 -14z m1896 -13 c-10 -10 -19 5 -10
18 6 11 8 11 12 0 2 -7 1 -15 -2 -18z m-2373 -9 c-5 -15 -16 -18 -26 -8 -10
11 4 33 18 28 8 -3 11 -12 8 -20z m267 16 c0 -5 -4 -10 -9 -10 -5 0 -11 -9
-14 -19 -4 -15 -10 -18 -28 -14 -22 6 -22 6 -2 14 11 4 23 14 26 23 7 18 27
22 27 6z m838 -1 c-2 -6 -8 -10 -13 -10 -5 0 -11 4 -13 10 -2 6 4 11 13 11 9
0 15 -5 13 -11z m1407 2 c3 -5 1 -12 -5 -16 -5 -3 -10 1 -10 9 0 18 6 21 15 7z
m-2575 -5 c0 -3 -4 -8 -10 -11 -5 -3 -10 -1 -10 4 0 6 5 11 10 11 6 0 10 -2
10 -4z m750 -11 c0 -8 -4 -15 -10 -15 -5 0 -10 7 -10 15 0 8 5 15 10 15 6 0
10 -7 10 -15z m1515 5 c3 -5 1 -10 -4 -10 -6 0 -11 5 -11 10 0 6 2 10 4 10 3
0 8 -4 11 -10z m442 -12 c-3 -8 -6 -5 -6 6 -1 11 2 17 5 13 3 -3 4 -12 1 -19z
m80 2 c1 -11 -2 -20 -8 -20 -10 0 -12 23 -2 33 9 9 9 10 10 -13z m-2852 -10
c3 -5 -1 -10 -9 -10 -9 0 -16 5 -16 10 0 6 4 10 9 10 6 0 13 -4 16 -10z m246
-13 c-13 -13 -26 -3 -16 12 3 6 11 8 17 5 6 -4 6 -10 -1 -17z m195 -5 c-9 -9
-37 8 -31 18 5 8 11 7 21 -1 8 -6 12 -14 10 -17z m128 3 c21 -32 20 -35 -5
-35 -15 0 -19 5 -15 15 3 8 1 15 -4 15 -6 0 -10 7 -10 15 0 23 16 18 34 -10z
m61 16 c3 -5 1 -12 -5 -16 -5 -3 -10 1 -10 9 0 18 6 21 15 7z m548 -12 c-6 -6
-18 -6 -28 -3 -18 7 -18 8 1 14 23 9 39 1 27 -11z m-1133 1 c0 -5 -2 -10 -4
-10 -3 0 -8 5 -11 10 -3 6 -1 10 4 10 6 0 11 -4 11 -10z m2444 -3 c11 -10 11
-15 0 -25 -8 -7 -15 -8 -19 -2 -3 6 -1 10 6 10 8 0 8 4 -1 15 -15 18 -4 20 14
2z m108 -19 c-9 -9 -12 -7 -12 12 0 19 3 21 12 12 9 -9 9 -15 0 -24z m595 0
c-3 -7 -5 -2 -5 12 0 14 2 19 5 13 2 -7 2 -19 0 -25z m-507 5 c0 -7 -4 -13
-10 -13 -5 0 -10 -7 -10 -17 0 -22 -6 -14 -13 17 -5 21 -3 26 13 26 11 0 20
-6 20 -13z m-2482 -18 c-13 -29 -28 -33 -28 -7 0 22 8 32 26 32 11 0 11 -5 2
-25z m462 -1 c0 -8 -4 -12 -10 -9 -5 3 -10 13 -10 21 0 8 5 12 10 9 6 -3 10
-13 10 -21z m465 16 c-3 -5 -12 -10 -18 -10 -7 0 -6 4 3 10 19 12 23 12 15 0z
m1925 6 c0 -2 -7 -6 -15 -10 -8 -3 -15 -1 -15 4 0 6 7 10 15 10 8 0 15 -2 15
-4z m520 -18 c0 -16 -3 -19 -11 -11 -6 6 -8 16 -5 22 11 17 16 13 16 -11z
m-3635 -8 c0 -7 -6 -15 -12 -17 -8 -3 -13 4 -13 17 0 13 5 20 13 18 6 -3 12
-11 12 -18z m515 10 c0 -5 -7 -10 -15 -10 -8 0 -15 5 -15 10 0 6 7 10 15 10 8
0 15 -4 15 -10z m630 -6 c0 -8 5 -12 10 -9 6 3 10 4 10 1 0 -3 -8 -10 -18 -15
-15 -8 -18 -5 -20 15 -1 13 3 24 8 24 6 0 10 -7 10 -16z m-970 -55 c0 -6 -10
-3 -21 5 -12 8 -28 12 -35 9 -17 -6 -18 13 -1 32 10 12 15 11 35 -11 12 -14
22 -30 22 -35z m20 41 c0 -5 -2 -10 -4 -10 -3 0 -8 5 -11 10 -3 6 -1 10 4 10
6 0 11 -4 11 -10z m156 -4 c18 5 24 2 24 -10 0 -11 -9 -16 -29 -16 -32 0 -46
13 -35 32 6 9 9 9 12 0 2 -7 13 -10 28 -6z m198 -7 c-3 -5 -10 -7 -15 -3 -5 3
-7 10 -3 15 3 5 10 7 15 3 5 -3 7 -10 3 -15z m141 11 c3 -5 1 -10 -4 -10 -6 0
-11 5 -11 10 0 6 2 10 4 10 3 0 8 -4 11 -10z m1815 1 c0 -5 -7 -11 -15 -15 -9
-3 -15 0 -15 9 0 8 7 15 15 15 8 0 15 -4 15 -9z m56 -26 c-3 -8 -13 -15 -23
-15 -17 1 -17 1 0 14 9 7 17 19 18 27 0 11 2 11 6 1 3 -7 2 -19 -1 -27z m264
25 c0 -5 -4 -10 -10 -10 -5 0 -10 5 -10 10 0 6 5 10 10 10 6 0 10 -4 10 -10z
m-2780 -10 c0 -5 -2 -10 -4 -10 -3 0 -8 5 -11 10 -3 6 -1 10 4 10 6 0 11 -4
11 -10z m420 0 c0 -5 -5 -10 -11 -10 -5 0 -7 5 -4 10 3 6 8 10 11 10 2 0 4 -4
4 -10z m2140 -5 c0 -8 -4 -15 -10 -15 -5 0 -10 7 -10 15 0 8 5 15 10 15 6 0
10 -7 10 -15z m1039 -117 c1 -27 -3 -48 -9 -48 -6 0 -10 35 -9 88 1 73 3 81
10 47 4 -22 8 -61 8 -87z m-3029 97 c0 -2 -7 -5 -15 -9 -9 -3 -15 0 -15 9 0 9
6 12 15 9 8 -4 15 -7 15 -9z m357 -15 c-2 -30 -20 -40 -32 -19 -6 8 20 49 31
49 2 0 2 -13 1 -30z m1693 4 c0 -16 -16 -19 -25 -4 -8 13 4 32 16 25 5 -4 9
-13 9 -21z m-2710 6 c0 -5 -4 -10 -10 -10 -5 0 -10 5 -10 10 0 6 5 10 10 10 6
0 10 -4 10 -10z m570 -23 c0 -7 -4 -7 -12 1 -18 18 -26 15 -31 -15 -4 -27 -4
-27 -6 4 0 17 5 33 12 36 14 5 37 -11 37 -26z m174 1 c6 -4 7 -10 3 -15 -10
-9 -27 16 -26 37 1 13 1 13 6 0 3 -8 11 -18 17 -22z m334 15 c6 -19 -25 -16
-32 3 -4 11 -1 14 11 12 9 -2 18 -9 21 -15z m1912 2 c-7 -8 -17 -15 -22 -15
-11 0 14 29 26 30 5 0 3 -7 -4 -15z m-2688 -17 c-7 -7 -8 -17 -1 -29 7 -15 6
-17 -6 -13 -8 3 -13 10 -10 14 3 5 0 10 -6 12 -8 3 -5 10 6 21 9 10 20 15 23
12 3 -3 1 -10 -6 -17z m158 12 c0 -5 -5 -10 -11 -10 -5 0 -7 5 -4 10 3 6 8 10
11 10 2 0 4 -4 4 -10z m430 -6 c0 -2 -12 -4 -26 -4 -14 0 -23 4 -20 9 6 8 46
4 46 -5z m49 -1 c-32 -41 -39 -46 -39 -26 0 22 18 43 38 43 12 0 12 -3 1 -17z
m2111 8 c0 -6 -4 -13 -10 -16 -5 -3 -10 1 -10 9 0 9 5 16 10 16 6 0 10 -4 10
-9z m-2970 -21 c0 -5 -4 -10 -10 -10 -5 0 -10 5 -10 10 0 6 5 10 10 10 6 0 10
-4 10 -10z m80 -6 c0 -8 -5 -12 -10 -9 -6 4 -8 11 -5 16 9 14 15 11 15 -7z
m503 -31 c-3 -6 -11 -14 -19 -17 -12 -4 -12 -2 -4 14 6 10 10 23 9 27 -3 21 3
26 10 8 5 -11 6 -25 4 -32z m137 32 c0 -8 -4 -15 -9 -15 -13 0 -22 16 -14 24
11 11 23 6 23 -9z m-582 -18 c5 -23 -10 -21 -26 4 -12 18 -11 20 5 17 10 -2
19 -11 21 -21z m2409 17 c-3 -3 -12 -4 -19 -1 -8 3 -5 6 6 6 11 1 17 -2 13 -5z
m313 -10 c0 -8 -4 -12 -10 -9 -5 3 -10 10 -10 16 0 5 5 9 10 9 6 0 10 -7 10
-16z m50 7 c0 -5 -7 -12 -16 -15 -14 -5 -15 -4 -4 9 14 17 20 19 20 6z m-2979
-35 c-15 -18 -6 -37 14 -29 8 3 15 0 15 -6 0 -6 7 -11 15 -11 8 0 15 -8 15
-17 0 -14 -4 -12 -25 7 -25 23 -25 23 -25 2 0 -14 -6 -20 -20 -19 -15 1 -18 6
-14 24 4 14 2 23 -6 23 -6 0 -10 10 -8 23 2 15 9 21 22 19 12 -2 16 1 11 10
-6 10 -5 10 5 1 11 -10 11 -15 1 -27z m984 4 c8 0 15 -6 15 -14 0 -8 -16 -16
-41 -20 -34 -5 -40 -10 -36 -26 3 -10 -1 -21 -8 -24 -18 -7 -27 5 -15 19 8 9
6 14 -5 19 -17 6 -65 -13 -65 -26 0 -5 -9 -4 -20 2 -22 12 -26 35 -9 45 6 4
13 -2 16 -14 3 -11 9 -18 14 -15 13 8 11 21 -7 38 -20 20 0 22 37 3 37 -20 89
-19 96 1 4 8 1 18 -5 20 -7 2 -9 8 -6 14 4 7 10 4 16 -6 5 -9 16 -16 23 -16z
m1749 14 c9 -22 8 -24 -9 -18 -8 4 -15 12 -15 20 0 19 16 18 24 -2z m-2244
-15 c0 -6 -4 -7 -10 -4 -5 3 -10 11 -10 16 0 6 5 7 10 4 6 -3 10 -11 10 -16z
m103 0 c-4 -16 -8 -17 -14 -7 -13 19 -11 28 5 28 9 0 12 -7 9 -21z m2082 1 c3
-5 -1 -10 -10 -10 -9 0 -13 5 -10 10 3 6 8 10 10 10 2 0 7 -4 10 -10z m-2298
-26 c-9 -9 -28 6 -21 18 4 6 10 6 17 -1 6 -6 8 -13 4 -17z m64 -4 c6 0 8 -9 4
-19 -3 -11 1 -25 10 -34 19 -19 19 -37 1 -37 -9 0 -17 16 -21 43 -4 23 -12 45
-18 48 -5 4 -6 12 -1 20 7 11 9 10 12 -3 2 -10 8 -18 13 -18z m2389 20 c0 -5
-4 -10 -10 -10 -5 0 -10 5 -10 10 0 6 5 10 10 10 6 0 10 -4 10 -10z m-2660
-16 c0 -10 -6 -14 -14 -11 -11 4 -13 1 -9 -11 6 -15 4 -15 -10 -4 -8 8 -13 20
-10 28 7 19 43 18 43 -2z m125 6 c-3 -5 -11 -10 -16 -10 -6 0 -7 5 -4 10 3 6
11 10 16 10 6 0 7 -4 4 -10z m450 0 c3 -5 -1 -10 -10 -10 -9 0 -13 5 -10 10 3
6 8 10 10 10 2 0 7 -4 10 -10z m2145 0 c0 -5 -2 -10 -4 -10 -3 0 -8 5 -11 10
-3 6 -1 10 4 10 6 0 11 -4 11 -10z m119 -16 c-14 -13 -17 -13 -30 2 -12 15
-12 16 9 10 15 -5 22 -3 22 5 0 7 3 9 7 5 4 -3 0 -13 -8 -22z m-2499 -36 c0
-13 -12 -9 -26 10 -7 9 -13 24 -13 32 -1 10 6 6 19 -10 11 -14 20 -28 20 -32z
m2180 36 c0 -8 -5 -12 -10 -9 -6 4 -8 11 -5 16 9 14 15 11 15 -7z m60 -3 c0
-6 -4 -13 -10 -16 -5 -3 -10 1 -10 9 0 9 5 16 10 16 6 0 10 -4 10 -9z m-2415
-10 c7 -12 -12 -24 -25 -16 -11 7 -4 25 10 25 5 0 11 -4 15 -9z m2469 0 c3 -4
3 -11 0 -14 -8 -8 -34 3 -34 14 0 11 27 12 34 0z m271 0 c3 -5 2 -12 -3 -15
-5 -3 -9 1 -9 9 0 17 3 19 12 6z m-2845 -5 c0 -2 -7 -6 -15 -10 -8 -3 -15 -1
-15 4 0 6 7 10 15 10 8 0 15 -2 15 -4z m168 -14 c6 -18 -15 -14 -22 4 -4 10
-1 14 6 12 6 -2 14 -10 16 -16z m202 14 c0 -11 -19 -15 -25 -6 -3 5 1 10 9 10
9 0 16 -2 16 -4z m2266 -10 c8 -9 10 -17 5 -21 -6 -3 -15 4 -21 15 -12 23 -5
26 16 6z m-141 -6 c4 -6 -6 -10 -22 -9 -25 0 -26 1 -8 9 11 5 21 9 22 9 1 1 5
-3 8 -9z m405 -14 c0 -13 -7 -27 -16 -30 -14 -5 -15 -4 -5 8 6 8 11 18 10 22
-2 13 0 24 6 24 3 0 5 -11 5 -24z m-2560 4 c0 -5 -2 -10 -4 -10 -2 0 -11 -3
-19 -6 -8 -3 -17 2 -20 10 -5 12 0 16 18 16 14 0 25 -4 25 -10z m110 -5 c0 -9
-9 -15 -21 -15 -18 0 -19 2 -9 15 7 8 16 15 21 15 5 0 9 -7 9 -15z m85 5 c-3
-5 -10 -10 -16 -10 -5 0 -9 5 -9 10 0 6 7 10 16 10 8 0 12 -4 9 -10z m2052
-22 c-3 -7 -5 -2 -5 12 0 14 2 19 5 13 2 -7 2 -19 0 -25z m-2697 12 c0 -5 -7
-10 -15 -10 -8 0 -15 5 -15 10 0 6 7 10 15 10 8 0 15 -4 15 -10z m132 -2 c6
-17 -1 -38 -13 -38 -5 0 -9 11 -9 25 0 26 14 34 22 13z m478 -1 c0 -17 -38
-53 -46 -44 -4 4 1 9 10 13 9 3 16 15 16 25 0 10 5 19 10 19 6 0 10 -6 10 -13z
m2235 3 c3 -5 -1 -10 -9 -10 -9 0 -16 5 -16 10 0 6 4 10 9 10 6 0 13 -4 16
-10z m714 -82 c-2 -142 -17 -163 -18 -25 -1 75 3 117 9 117 7 0 10 -34 9 -92z
m-3649 62 c0 -4 -8 -10 -17 -14 -10 -3 -23 -8 -29 -11 -15 -8 -28 26 -14 35
14 9 60 1 60 -10z m289 -9 c-15 -5 -22 6 -14 19 6 9 10 9 16 -1 5 -8 4 -15 -2
-18z m2751 19 c8 -5 11 -12 8 -16 -4 -3 -14 1 -23 10 -18 17 -9 21 15 6z
m-2917 -12 c-4 -7 -8 -17 -8 -23 0 -5 -13 -11 -30 -12 -16 -1 -23 0 -15 4 8 3
23 14 34 25 23 21 31 23 19 6z m717 8 c0 -2 -7 -6 -15 -10 -8 -3 -15 -1 -15 4
0 6 7 10 15 10 8 0 15 -2 15 -4z m1890 -6 c0 -5 -4 -10 -9 -10 -6 0 -13 5 -16
10 -3 6 1 10 9 10 9 0 16 -4 16 -10z m-2377 -20 c19 -23 18 -24 -18 -10 -14 5
-23 14 -20 20 9 15 19 12 38 -10z m415 -6 c1 -11 -7 -30 -19 -43 -18 -19 -20
-27 -11 -42 16 -25 15 -52 0 -46 -7 2 -12 12 -11 21 0 10 -4 15 -11 13 -20 -8
-6 43 15 56 23 14 26 42 4 33 -13 -5 -14 -2 -5 15 13 24 34 20 38 -7z m-282
-1 c3 -10 10 -27 16 -37 8 -16 7 -18 -9 -11 -10 4 -25 9 -34 12 -13 4 -14 9
-5 29 13 28 25 31 32 7z m2267 1 c-4 -10 1 -22 12 -30 10 -8 15 -17 11 -21 -3
-4 -17 4 -29 17 -17 18 -20 28 -13 37 16 18 26 16 19 -3z m67 2 c0 -16 -18
-31 -27 -22 -8 8 5 36 17 36 5 0 10 -6 10 -14z m127 -8 c-3 -8 -6 -5 -6 6 -1
11 2 17 5 13 3 -3 4 -12 1 -19z m-2141 -24 c-5 -13 -10 -14 -18 -6 -6 6 -8 18
-4 28 5 13 10 14 18 6 6 -6 8 -18 4 -28z m2341 14 c-3 -8 -6 -5 -6 6 -1 11 2
17 5 13 3 -3 4 -12 1 -19z m-3120 6 c-3 -4 -2 -15 4 -25 6 -13 6 -19 -1 -19
-5 0 -10 5 -10 10 0 6 -8 10 -17 10 -16 1 -16 2 1 15 20 15 35 21 23 9z m243
-4 c0 -5 -4 -10 -10 -10 -5 0 -10 5 -10 10 0 6 5 10 10 10 6 0 10 -4 10 -10z
m2590 -5 c0 -8 -2 -15 -4 -15 -2 0 -6 7 -10 15 -3 8 -1 15 4 15 6 0 10 -7 10
-15z m144 -16 c-6 -11 -24 -2 -24 11 0 5 7 7 15 4 8 -4 12 -10 9 -15z m-2711
-16 c5 -26 4 -26 -9 -9 -7 10 -11 23 -8 27 8 14 11 11 17 -18z m397 11 c0 -14
-3 -14 -15 -4 -8 7 -15 14 -15 16 0 2 7 4 15 4 8 0 15 -7 15 -16z m2440 1 c0
-8 -7 -15 -15 -15 -8 0 -15 7 -15 15 0 8 7 15 15 15 8 0 15 -7 15 -15z m107
-2 c-9 -9 -19 -14 -23 -11 -10 10 6 28 24 28 15 0 15 -1 -1 -17z m155 -10 c-3
-16 -7 -22 -10 -15 -4 13 4 42 11 42 2 0 2 -12 -1 -27z m-3427 7 c3 -5 3 -15
-1 -21 -6 -11 -23 6 -24 24 0 10 18 9 25 -3z m215 -6 c0 -8 -5 -12 -10 -9 -6
4 -8 11 -5 16 9 14 15 11 15 -7z m2705 6 c3 -5 1 -10 -4 -10 -6 0 -11 5 -11
10 0 6 2 10 4 10 3 0 8 -4 11 -10z m-2756 -29 c-15 -5 -22 6 -14 19 6 9 10 9
16 -1 5 -8 4 -15 -2 -18z m491 13 c0 -8 -5 -12 -10 -9 -6 4 -8 11 -5 16 9 14
15 11 15 -7z m2327 -6 c-3 -8 -6 -5 -6 6 -1 11 2 17 5 13 3 -3 4 -12 1 -19z
m83 2 c0 -5 -4 -10 -10 -10 -5 0 -10 5 -10 10 0 6 5 10 10 10 6 0 10 -4 10
-10z m-244 -27 c-10 -10 -19 5 -10 18 6 11 8 11 12 0 2 -7 1 -15 -2 -18z
m-2582 -15 c-9 -14 -23 2 -17 18 4 12 8 13 14 3 4 -7 5 -17 3 -21z m461 22
c-3 -5 -13 -10 -21 -10 -8 0 -14 5 -14 10 0 6 9 10 21 10 11 0 17 -4 14 -10z
m2195 -10 c0 -18 -3 -19 -20 -10 -22 12 -18 30 6 30 8 0 14 -9 14 -20z m119
-11 c-9 -5 -15 -4 -18 2 -2 6 3 15 10 20 9 5 15 4 18 -2 2 -6 -3 -15 -10 -20z
m211 21 c0 -5 -7 -10 -15 -10 -8 0 -15 5 -15 10 0 6 7 10 15 10 8 0 15 -4 15
-10z m-3210 -21 c0 -6 -4 -7 -10 -4 -6 4 -11 -6 -11 -22 -2 -25 -2 -25 -6 -5
-6 29 4 55 17 47 5 -3 10 -11 10 -16z m100 12 c0 -6 -4 -13 -10 -16 -5 -3 -10
1 -10 9 0 9 5 16 10 16 6 0 10 -4 10 -9z m45 -22 c-10 -15 -25 -10 -19 6 4 8
10 12 15 9 5 -3 7 -10 4 -15z m3332 15 c-3 -3 -12 -4 -19 -1 -8 3 -5 6 6 6 11
1 17 -2 13 -5z m-3017 -29 c0 -8 -4 -15 -10 -15 -5 0 -10 7 -10 15 0 8 5 15
10 15 6 0 10 -7 10 -15z m143 8 c-7 -2 -19 -2 -25 0 -7 3 -2 5 12 5 14 0 19
-2 13 -5z m2227 -3 c0 -5 -4 -10 -10 -10 -5 0 -10 5 -10 10 0 6 5 10 10 10 6
0 10 -4 10 -10z m355 -9 c-3 -6 -11 -11 -16 -11 -5 0 -4 6 3 14 14 16 24 13
13 -3z m90 0 c-3 -6 -11 -11 -17 -11 -6 0 -6 6 2 15 14 17 26 13 15 -4z
m-2572 3 c6 -6 -16 -34 -26 -34 -3 0 -3 9 0 20 5 20 15 25 26 14z m-683 -19
c0 -8 -2 -15 -4 -15 -2 0 -6 7 -10 15 -3 8 -1 15 4 15 6 0 10 -7 10 -15z m357
-7 c-3 -8 -6 -5 -6 6 -1 11 2 17 5 13 3 -3 4 -12 1 -19z m267 -4 c4 -12 2 -12
-14 -4 -11 6 -20 15 -20 20 0 14 28 1 34 -16z m-54 3 c0 -7 -9 -20 -19 -29
-17 -15 -20 -15 -25 -1 -7 18 10 43 30 43 8 0 14 -6 14 -13z m2320 9 c0 -15
-14 -35 -21 -30 -15 9 -10 34 6 34 8 0 15 -2 15 -4z m160 -12 c0 -8 -4 -12
-10 -9 -5 3 -10 10 -10 16 0 5 5 9 10 9 6 0 10 -7 10 -16z m46 -11 c-10 -10
-19 5 -10 18 6 11 8 11 12 0 2 -7 1 -15 -2 -18z m264 17 c0 -5 7 -10 15 -10 8
0 15 -4 15 -10 0 -13 -11 -12 -32 4 -20 15 -23 26 -8 26 6 0 10 -4 10 -10z
m-3197 -15 c1 -5 -6 -11 -15 -13 -11 -2 -18 3 -18 13 0 17 30 18 33 0z m563
-4 c12 9 14 6 14 -19 0 -24 -4 -30 -15 -26 -8 4 -15 9 -15 13 0 3 -2 15 -4 26
-2 11 -1 14 1 7 4 -10 8 -10 19 -1z m2594 15 c0 -2 -7 -6 -15 -10 -8 -3 -15
-1 -15 4 0 6 7 10 15 10 8 0 15 -2 15 -4z m-3360 -16 c0 -5 -5 -10 -11 -10 -5
0 -7 5 -4 10 3 6 8 10 11 10 2 0 4 -4 4 -10z m116 1 c-4 -5 -1 -12 4 -14 6 -3
5 -4 -2 -3 -15 3 -23 26 -8 26 6 0 9 -4 6 -9z m198 -6 c-4 -8 -10 -12 -15 -9
-14 8 -10 24 6 24 9 0 12 -6 9 -15z m2556 6 c0 -5 -7 -11 -15 -15 -9 -3 -15 0
-15 9 0 8 7 15 15 15 8 0 15 -4 15 -9z m140 -1 c0 -5 -2 -10 -4 -10 -3 0 -8 5
-11 10 -3 6 -1 10 4 10 6 0 11 -4 11 -10z m-2525 -10 c-3 -5 -10 -10 -16 -10
-5 0 -9 5 -9 10 0 6 7 10 16 10 8 0 12 -4 9 -10z m245 -15 c0 -8 -2 -15 -4
-15 -2 0 -6 7 -10 15 -3 8 -1 15 4 15 6 0 10 -7 10 -15z m2235 1 c12 -12 12
-16 1 -25 -15 -13 -26 -5 -26 21 0 22 7 23 25 4z m375 10 c0 -2 -7 -6 -15 -10
-8 -3 -15 -1 -15 4 0 6 7 10 15 10 8 0 15 -2 15 -4z m337 -28 c-3 -8 -6 -5 -6
6 -1 11 2 17 5 13 3 -3 4 -12 1 -19z m-517 2 c0 -5 -2 -10 -4 -10 -3 0 -8 5
-11 10 -3 6 -1 10 4 10 6 0 11 -4 11 -10z m95 1 c3 -5 1 -12 -5 -16 -5 -3 -10
1 -10 9 0 18 6 21 15 7z m-3255 -17 c0 -8 -5 -12 -10 -9 -6 4 -8 11 -5 16 9
14 15 11 15 -7z m155 6 c3 -5 -1 -10 -10 -10 -9 0 -13 5 -10 10 3 6 8 10 10
10 2 0 7 -4 10 -10z m3225 1 c0 -6 -4 -13 -10 -16 -5 -3 -10 1 -10 9 0 9 5 16
10 16 6 0 10 -4 10 -9z m-2982 -31 c-2 -6 -8 -6 -18 0 -13 9 -13 11 0 20 15
10 25 0 18 -20z m262 21 c0 -11 -50 -61 -61 -61 -5 0 -9 5 -9 10 0 6 5 10 10
10 6 0 10 5 10 11 0 12 29 38 43 39 4 0 7 -4 7 -9z m55 -16 c0 -14 -3 -25 -7
-25 -5 0 -8 11 -8 25 0 14 3 25 8 25 4 0 7 -11 7 -25z m2195 21 c0 -3 -4 -8
-10 -11 -5 -3 -10 -1 -10 4 0 6 5 11 10 11 6 0 10 -2 10 -4z m-2816 -21 c-4
-8 -8 -15 -10 -15 -2 0 -4 7 -4 15 0 8 4 15 10 15 5 0 7 -7 4 -15z m222 -10
c-14 -14 -16 -14 -16 -2 0 9 6 17 13 20 19 7 21 -1 3 -18z m451 3 c-3 -8 -6
-5 -6 6 -1 11 2 17 5 13 3 -3 4 -12 1 -19z m2400 6 c-3 -3 -12 -4 -19 -1 -8 3
-5 6 6 6 11 1 17 -2 13 -5z m-3012 -34 c-5 -8 -11 -8 -17 -2 -6 6 -7 16 -3 22
5 8 11 8 17 2 6 -6 7 -16 3 -22z m379 6 c-3 -8 -14 -16 -25 -19 -19 -5 -17 4
6 29 13 15 26 8 19 -10z m2442 -13 c-10 -10 -19 5 -10 18 6 11 8 11 12 0 2 -7
1 -15 -2 -18z m219 18 c3 -5 1 -12 -5 -16 -5 -3 -10 1 -10 9 0 18 6 21 15 7z
m-2414 -24 c-15 -15 -14 -37 2 -37 7 0 13 -13 14 -32 1 -19 -1 -24 -4 -13 -8
29 -24 47 -40 41 -18 -7 -17 8 2 24 8 6 14 15 13 18 -2 17 3 23 13 16 8 -4 8
-9 0 -17z m2129 13 c0 -5 -7 -10 -15 -10 -8 0 -15 5 -15 10 0 6 7 10 15 10 8
0 15 -4 15 -10z m540 0 c0 -5 -4 -10 -10 -10 -5 0 -10 5 -10 10 0 6 5 10 10
10 6 0 10 -4 10 -10z m232 -15 c3 -14 1 -28 -3 -31 -5 -3 -9 9 -9 25 0 38 6
40 12 6z m-672 -1 c0 -8 -5 -12 -10 -9 -6 4 -8 11 -5 16 9 14 15 11 15 -7z
m-3000 2 c0 -3 -4 -8 -10 -11 -5 -3 -10 -1 -10 4 0 6 5 11 10 11 6 0 10 -2 10
-4z m442 -8 c-9 -9 -15 -9 -24 0 -9 9 -7 12 12 12 19 0 21 -3 12 -12z m2838
-8 c0 -11 -4 -20 -10 -20 -5 0 -10 9 -10 20 0 11 5 20 10 20 6 0 10 -9 10 -20z
m-2640 -7 c0 -10 -4 -24 -9 -32 -7 -11 -10 -9 -16 8 -7 22 0 41 16 41 5 0 9
-8 9 -17z m-470 -3 c0 -5 -7 -7 -15 -4 -8 4 -15 8 -15 10 0 2 7 4 15 4 8 0 15
-4 15 -10z m514 -5 c3 -8 1 -15 -4 -15 -6 0 -10 7 -10 15 0 8 2 15 4 15 2 0 6
-7 10 -15z m2550 -20 c-4 -8 -14 -15 -23 -15 -14 1 -13 3 3 15 25 19 27 19 20
0z m166 -6 c0 -11 -4 -18 -10 -14 -5 3 -7 12 -3 20 7 21 13 19 13 -6z m-397
-22 c-5 -8 -8 -7 -11 1 -2 7 -11 12 -20 12 -14 0 -15 2 -2 10 17 11 43 -7 33
-23z m114 18 c9 -10 23 -13 35 -9 14 4 18 2 14 -5 -9 -14 -56 -15 -56 -1 0 6
-7 10 -15 10 -8 0 -15 5 -15 10 0 15 19 12 37 -5z m383 -15 c0 -5 -4 -10 -10
-10 -5 0 -10 5 -10 10 0 6 5 10 10 10 6 0 10 -4 10 -10z m-2830 -15 c0 -8 -2
-15 -4 -15 -2 0 -6 7 -10 15 -3 8 -1 15 4 15 6 0 10 -7 10 -15z m2645 -7 c9
-29 16 -88 8 -68 -3 8 -14 27 -25 42 -11 16 -16 32 -13 38 10 16 22 11 30 -12z
m-3310 4 c-5 -4 -12 -16 -13 -27 -4 -23 -10 -31 -17 -23 -12 11 8 58 24 58 9
0 12 -3 6 -8z m445 -2 c0 -5 -4 -10 -10 -10 -5 0 -10 5 -10 10 0 6 5 10 10 10
6 0 10 -4 10 -10z m3217 -22 c-3 -7 -5 -2 -5 12 0 14 2 19 5 13 2 -7 2 -19 0
-25z m-430 0 c-3 -8 -6 -5 -6 6 -1 11 2 17 5 13 3 -3 4 -12 1 -19z m-3207 2
c0 -5 -2 -10 -4 -10 -3 0 -8 5 -11 10 -3 6 -1 10 4 10 6 0 11 -4 11 -10z
m3010 0 c0 -5 -4 -10 -9 -10 -6 0 -13 5 -16 10 -3 6 1 10 9 10 9 0 16 -4 16
-10z m-2666 -21 c-8 -14 -24 -10 -24 6 0 9 6 12 15 9 8 -4 12 -10 9 -15z
m3136 11 c0 -5 -2 -10 -4 -10 -3 0 -8 5 -11 10 -3 6 -1 10 4 10 6 0 11 -4 11
-10z m-3370 -20 c0 -5 -5 -10 -11 -10 -5 0 -7 5 -4 10 3 6 8 10 11 10 2 0 4
-4 4 -10z m150 -6 c0 -2 -7 -4 -15 -4 -8 0 -15 4 -15 10 0 5 7 7 15 4 8 -4 15
-8 15 -10z m2754 -9 c-7 -18 -54 -49 -54 -36 0 14 43 58 52 54 4 -2 5 -10 2
-18z m221 15 c3 -5 -1 -10 -9 -10 -9 0 -16 5 -16 10 0 6 4 10 9 10 6 0 13 -4
16 -10z m155 -6 c0 -8 -5 -12 -10 -9 -6 4 -8 11 -5 16 9 14 15 11 15 -7z m247
-6 c-3 -8 -6 -5 -6 6 -1 11 2 17 5 13 3 -3 4 -12 1 -19z m-2984 -3 c-3 -9 -8
-14 -10 -11 -3 3 -2 9 2 15 9 16 15 13 8 -4z m2274 9 c-3 -3 -12 -4 -19 -1 -8
3 -5 6 6 6 11 1 17 -2 13 -5z m183 -3 c0 -6 -4 -13 -10 -16 -5 -3 -10 1 -10 9
0 9 5 16 10 16 6 0 10 -4 10 -9z m-66 -26 c3 -8 1 -15 -4 -15 -6 0 -10 7 -10
15 0 8 2 15 4 15 2 0 6 -7 10 -15z m-2757 -17 c-3 -8 -6 -5 -6 6 -1 11 2 17 5
13 3 -3 4 -12 1 -19z m263 12 c0 -5 -4 -10 -10 -10 -5 0 -10 5 -10 10 0 6 5
10 10 10 6 0 10 -4 10 -10z m46 -17 c-10 -10 -19 5 -10 18 6 11 8 11 12 0 2
-7 1 -15 -2 -18z m-416 7 c0 -5 -2 -10 -4 -10 -3 0 -8 5 -11 10 -3 6 -1 10 4
10 6 0 11 -4 11 -10z m2960 -16 c0 -14 -4 -23 -10 -19 -5 3 -10 15 -10 26 0
10 5 19 10 19 6 0 10 -12 10 -26z m200 16 c0 -5 -5 -10 -11 -10 -5 0 -7 5 -4
10 3 6 8 10 11 10 2 0 4 -4 4 -10z m-3210 -4 c0 -2 -7 -9 -15 -16 -13 -11 -14
-10 -9 4 5 14 24 23 24 12z m3100 -5 c0 -5 11 -11 24 -13 l24 -3 -26 -19 c-15
-11 -24 -16 -19 -11 4 5 0 19 -8 32 -9 13 -11 23 -5 23 5 0 10 -4 10 -9z m407
-13 c-3 -8 -6 -5 -6 6 -1 11 2 17 5 13 3 -3 4 -12 1 -19z m-3595 -30 c-6 -6
-7 0 -4 19 5 21 7 23 10 9 2 -10 0 -22 -6 -28z m-65 26 c-3 -3 -12 -4 -19 -1
-8 3 -5 6 6 6 11 1 17 -2 13 -5z m678 -14 c3 -5 1 -10 -4 -10 -6 0 -11 5 -11
10 0 6 2 10 4 10 3 0 8 -4 11 -10z m2526 -18 c-6 -2 -9 -8 -5 -13 3 -5 0 -9
-5 -9 -14 0 -14 6 1 33 8 17 13 18 16 7 3 -7 0 -16 -7 -18z m-163 0 c6 -18
-15 -14 -22 4 -4 10 -1 14 6 12 6 -2 14 -10 16 -16z m57 -10 c-8 -2 -15 -12
-15 -23 0 -10 -4 -19 -10 -19 -15 0 -12 24 7 47 13 15 20 18 25 10 4 -7 1 -13
-7 -15z m360 8 c3 -5 -1 -10 -10 -10 -9 0 -13 5 -10 10 3 6 8 10 10 10 2 0 7
-4 10 -10z m202 -102 c-2 -24 -4 -7 -4 37 0 44 2 63 4 43 2 -21 2 -57 0 -80z
m-3687 92 c0 -5 -2 -10 -4 -10 -3 0 -8 5 -11 10 -3 6 -1 10 4 10 6 0 11 -4 11
-10z m640 6 c0 -3 -4 -8 -10 -11 -5 -3 -10 -1 -10 4 0 6 5 11 10 11 6 0 10 -2
10 -4z m2347 -11 c0 -8 -4 -15 -8 -15 -4 0 -9 7 -13 15 -3 9 0 15 8 15 7 0 13
-7 13 -15z m418 5 c3 -5 1 -10 -4 -10 -6 0 -11 5 -11 10 0 6 2 10 4 10 3 0 8
-4 11 -10z m-142 -30 c-3 -11 -9 -17 -14 -14 -14 8 -10 34 5 34 9 0 12 -7 9
-20z m-3254 -21 c-13 -26 -23 -18 -14 10 3 12 11 19 16 16 5 -4 5 -14 -2 -26z
m596 13 c-3 -3 -11 0 -18 7 -9 10 -8 11 6 5 10 -3 15 -9 12 -12z m2415 -4 c0
-16 -3 -19 -11 -11 -6 6 -8 16 -5 22 11 17 16 13 16 -11z m-2329 -11 c-13 -13
-26 -3 -16 12 3 6 11 8 17 5 6 -4 6 -10 -1 -17z m2629 2 c0 -5 -4 -9 -10 -9
-5 0 -10 7 -10 16 0 8 5 12 10 9 6 -3 10 -10 10 -16z m-3135 0 c11 -16 1 -19
-13 -3 -7 8 -8 14 -3 14 5 0 13 -5 16 -11z m300 -9 c-3 -5 -11 -10 -16 -10 -6
0 -7 5 -4 10 3 6 11 10 16 10 6 0 7 -4 4 -10z m2640 0 c3 -5 -1 -10 -9 -10 -9
0 -16 5 -16 10 0 6 4 10 9 10 6 0 13 -4 16 -10z m45 -6 c0 -8 -5 -12 -10 -9
-6 4 -8 11 -5 16 9 14 15 11 15 -7z m-3046 -26 c-9 -14 -23 2 -17 18 4 12 8
13 14 3 4 -7 5 -17 3 -21z m2932 5 c-10 -10 -19 5 -10 18 6 11 8 11 12 0 2 -7
1 -15 -2 -18z m179 -2 c-6 -5 -25 10 -25 20 0 5 6 4 14 -3 8 -7 12 -15 11 -17z
m-3205 -16 c0 -14 5 -25 10 -25 6 0 10 -4 10 -9 0 -6 -9 -8 -20 -6 -14 3 -20
-2 -20 -16 0 -10 -4 -19 -9 -19 -5 0 -9 16 -8 35 1 19 5 35 9 35 4 0 8 7 8 15
0 8 5 15 10 15 6 0 10 -11 10 -25z m680 15 c0 -5 -2 -10 -4 -10 -3 0 -8 5 -11
10 -3 6 -1 10 4 10 6 0 11 -4 11 -10z m-440 -10 c0 -5 -5 -10 -11 -10 -5 0 -7
5 -4 10 3 6 8 10 11 10 2 0 4 -4 4 -10z m2845 -11 c-9 -14 -48 -28 -59 -21 -5
3 4 11 20 18 37 16 47 17 39 3z m192 -11 c-3 -8 -6 -5 -6 6 -1 11 2 17 5 13 3
-3 4 -12 1 -19z m79 -5 c-10 -10 -19 5 -10 18 6 11 8 11 12 0 2 -7 1 -15 -2
-18z m71 21 c-3 -3 -12 -4 -19 -1 -8 3 -5 6 6 6 11 1 17 -2 13 -5z m-2787 -34
c0 -5 -5 -10 -11 -10 -5 0 -7 5 -4 10 3 6 8 10 11 10 2 0 4 -4 4 -10z m2496
-17 c-10 -10 -19 5 -10 18 6 11 8 11 12 0 2 -7 1 -15 -2 -18z m54 -3 c0 -5 -2
-10 -4 -10 -3 0 -8 5 -11 10 -3 6 -1 10 4 10 6 0 11 -4 11 -10z m-3046 -21
c-3 -5 -10 -7 -15 -3 -5 3 -7 10 -3 15 3 5 10 7 15 3 5 -3 7 -10 3 -15z m3513
-1 c-3 -8 -6 -5 -6 6 -1 11 2 17 5 13 3 -3 4 -12 1 -19z m-3037 -9 c0 -11 -4
-17 -10 -14 -5 3 -10 13 -10 21 0 8 5 14 10 14 6 0 10 -9 10 -21z m45 11 c-3
-5 -1 -10 6 -10 7 0 10 -2 7 -5 -8 -9 -38 6 -32 16 3 5 10 9 15 9 6 0 7 -4 4
-10z m2455 0 c0 -5 -2 -10 -4 -10 -3 0 -8 5 -11 10 -3 6 -1 10 4 10 6 0 11 -4
11 -10z m-2785 -10 c3 -5 1 -10 -4 -10 -6 0 -11 5 -11 10 0 6 2 10 4 10 3 0 8
-4 11 -10z m2672 -6 c-3 -3 -12 -4 -19 -1 -8 3 -5 6 6 6 11 1 17 -2 13 -5z
m290 -26 c-3 -8 -6 -5 -6 6 -1 11 2 17 5 13 3 -3 4 -12 1 -19z m360 -10 c-3
-7 -5 -2 -5 12 0 14 2 19 5 13 2 -7 2 -19 0 -25z m-3670 14 c8 -5 8 -12 -2
-25 -12 -16 -13 -16 -17 8 -5 26 -1 30 19 17z m300 -14 c-3 -8 -6 -5 -6 6 -1
11 2 17 5 13 3 -3 4 -12 1 -19z m2963 3 c0 -6 -4 -13 -10 -16 -5 -3 -10 1 -10
9 0 9 5 16 10 16 6 0 10 -4 10 -9z m-3220 -15 c0 -11 -19 -15 -25 -6 -3 5 1
10 9 10 9 0 16 -2 16 -4z m302 -18 c-7 -7 -12 -8 -12 -2 0 14 12 26 19 19 2
-3 -1 -11 -7 -17z m-202 -4 c0 -8 -5 -12 -10 -9 -6 4 -8 11 -5 16 9 14 15 11
15 -7z m157 -6 c-3 -8 -6 -5 -6 6 -1 11 2 17 5 13 3 -3 4 -12 1 -19z m3073 2
c0 -5 -5 -10 -11 -10 -5 0 -7 5 -4 10 3 6 8 10 11 10 2 0 4 -4 4 -10z m-2711
-26 c-15 -18 -22 -13 -13 10 3 9 10 13 16 10 5 -3 4 -12 -3 -20z m2475 5 c-3
-5 -10 -7 -15 -3 -5 3 -7 10 -3 15 3 5 10 7 15 3 5 -3 7 -10 3 -15z m-3148
-46 c-10 -10 -19 5 -10 18 6 11 8 11 12 0 2 -7 1 -15 -2 -18z m44 7 c0 -5 -2
-10 -4 -10 -3 0 -8 5 -11 10 -3 6 -1 10 4 10 6 0 11 -4 11 -10z m134 -6 c13
-33 6 -49 -9 -20 -18 33 -18 36 -6 36 5 0 12 -7 15 -16z m3503 -16 c-3 -8 -6
-5 -6 6 -1 11 2 17 5 13 3 -3 4 -12 1 -19z m-3537 -2 c0 -3 -4 -8 -10 -11 -5
-3 -10 -1 -10 4 0 6 5 11 10 11 6 0 10 -2 10 -4z m3000 -31 c0 -8 -4 -15 -10
-15 -5 0 -10 7 -10 15 0 8 5 15 10 15 6 0 10 -7 10 -15z m120 11 c0 -3 -4 -8
-10 -11 -5 -3 -10 -1 -10 4 0 6 5 11 10 11 6 0 10 -2 10 -4z m-62 -27 c-2 -6
-8 -10 -13 -10 -5 0 -11 4 -13 10 -2 6 4 11 13 11 9 0 15 -5 13 -11z m-3158
-31 c0 -5 -9 -7 -19 -3 -14 4 -21 0 -24 -12 -3 -10 -5 -3 -6 14 -1 31 0 32 24
21 14 -6 25 -15 25 -20z m215 22 c3 -5 1 -10 -4 -10 -6 0 -11 5 -11 10 0 6 2
10 4 10 3 0 8 -4 11 -10z m2800 0 c3 -5 -1 -10 -10 -10 -9 0 -13 5 -10 10 3 6
8 10 10 10 2 0 7 -4 10 -10z m242 -22 c-3 -7 -5 -2 -5 12 0 14 2 19 5 13 2 -7
2 -19 0 -25z m-187 1 c0 -5 -4 -9 -10 -9 -5 0 -10 7 -10 16 0 8 5 12 10 9 6
-3 10 -10 10 -16z m108 -19 c-7 -11 -16 -20 -21 -20 -4 0 -3 9 3 20 6 11 15
20 20 20 6 0 5 -9 -2 -20z m-2538 -10 c0 -5 -4 -10 -10 -10 -5 0 -10 5 -10 10
0 6 5 10 10 10 6 0 10 -4 10 -10z m2461 -3 c-1 -12 -15 -9 -19 4 -3 6 1 10 8
8 6 -3 11 -8 11 -12z m119 -48 c0 -28 -15 -23 -16 6 -1 14 2 22 7 19 5 -3 9
-14 9 -25z m-3170 1 c0 -5 -4 -10 -9 -10 -6 0 -13 5 -16 10 -3 6 1 10 9 10 9
0 16 -4 16 -10z m237 -12 c-3 -8 -6 -5 -6 6 -1 11 2 17 5 13 3 -3 4 -12 1 -19z
m2633 2 c0 -5 -4 -10 -10 -10 -5 0 -10 5 -10 10 0 6 5 10 10 10 6 0 10 -4 10
-10z m-2963 -32 c-3 -7 -5 -2 -5 12 0 14 2 19 5 13 2 -7 2 -19 0 -25z m3680
-10 c-3 -7 -5 -2 -5 12 0 14 2 19 5 13 2 -7 2 -19 0 -25z m-3277 18 c0 -2 -7
-7 -16 -10 -8 -3 -12 -2 -9 4 6 10 25 14 25 6z m-240 -10 c0 -3 -4 -8 -10 -11
-5 -3 -10 -1 -10 4 0 6 5 11 10 11 6 0 10 -2 10 -4z m3020 0 c0 -3 -4 -8 -10
-11 -5 -3 -10 -1 -10 4 0 6 5 11 10 11 6 0 10 -2 10 -4z m40 -20 c0 -3 -4 -8
-10 -11 -5 -3 -10 -1 -10 4 0 6 5 11 10 11 6 0 10 -2 10 -4z m457 -28 c-3 -8
-6 -5 -6 6 -1 11 2 17 5 13 3 -3 4 -12 1 -19z m-2950 -30 c-3 -8 -6 -5 -6 6
-1 11 2 17 5 13 3 -3 4 -12 1 -19z m-730 -20 c-3 -8 -6 -5 -6 6 -1 11 2 17 5
13 3 -3 4 -12 1 -19z m330 -50 c-3 -8 -6 -5 -6 6 -1 11 2 17 5 13 3 -3 4 -12
1 -19z m-32 2 c3 -5 1 -10 -4 -10 -6 0 -11 5 -11 10 0 6 2 10 4 10 3 0 8 -4
11 -10z m-135 -54 c0 -3 -4 -8 -10 -11 -5 -3 -10 -1 -10 4 0 6 5 11 10 11 6 0
10 -2 10 -4z m3220 -16 c0 -5 -4 -10 -10 -10 -5 0 -10 5 -10 10 0 6 5 10 10
10 6 0 10 -4 10 -10z m-2920 -10 c0 -5 -4 -10 -10 -10 -5 0 -10 5 -10 10 0 6
5 10 10 10 6 0 10 -4 10 -10z m3217 -22 c-3 -7 -5 -2 -5 12 0 14 2 19 5 13 2
-7 2 -19 0 -25z m-3272 -8 c3 -5 1 -10 -4 -10 -6 0 -11 5 -11 10 0 6 2 10 4
10 3 0 8 -4 11 -10z m110 1 c3 -5 1 -12 -5 -16 -5 -3 -10 1 -10 9 0 18 6 21
15 7z m635 -41 c0 -5 -4 -10 -10 -10 -5 0 -10 5 -10 10 0 6 5 10 10 10 6 0 10
-4 10 -10z m2527 -22 c-3 -8 -6 -5 -6 6 -1 11 2 17 5 13 3 -3 4 -12 1 -19z
m-3677 -10 c0 -16 -3 -19 -11 -11 -6 6 -8 16 -5 22 11 17 16 13 16 -11z m475
12 c3 -5 1 -10 -4 -10 -6 0 -11 5 -11 10 0 6 2 10 4 10 3 0 8 -4 11 -10z
m2775 0 c0 -5 -2 -10 -4 -10 -3 0 -8 5 -11 10 -3 6 -1 10 4 10 6 0 11 -4 11
-10z m-2830 -16 c0 -2 -7 -4 -15 -4 -8 0 -15 4 -15 10 0 5 7 7 15 4 8 -4 15
-8 15 -10z m765 6 c3 -5 1 -10 -4 -10 -6 0 -11 5 -11 10 0 6 2 10 4 10 3 0 8
-4 11 -10z m1889 -15 c-7 -16 -24 -21 -24 -6 0 8 7 13 27 20 1 1 0 -6 -3 -14z
m-2767 -17 c-3 -8 -6 -5 -6 6 -1 11 2 17 5 13 3 -3 4 -12 1 -19z m3375 -293
c-2 -121 -6 -222 -8 -224 -2 -2 -3 119 -3 270 1 165 5 254 9 224 4 -27 5 -149
2 -270z m-3475 283 c-3 -8 -6 -5 -6 6 -1 11 2 17 5 13 3 -3 4 -12 1 -19z
m1003 2 c0 -5 -4 -10 -10 -10 -5 0 -10 5 -10 10 0 6 5 10 10 10 6 0 10 -4 10
-10z m1840 -41 c0 -6 -4 -7 -10 -4 -5 3 -10 11 -10 16 0 6 5 7 10 4 6 -3 10
-11 10 -16z m-3050 -19 c0 -5 -2 -10 -4 -10 -3 0 -8 5 -11 10 -3 6 -1 10 4 10
6 0 11 -4 11 -10z m960 0 c0 -5 -4 -10 -10 -10 -5 0 -10 5 -10 10 0 6 5 10 10
10 6 0 10 -4 10 -10z m2156 -17 c-7 -7 -26 7 -26 19 0 6 6 6 15 -2 9 -7 13
-15 11 -17z m-266 -63 c0 -5 -5 -10 -11 -10 -5 0 -7 5 -4 10 3 6 8 10 11 10 2
0 4 -4 4 -10z m-2340 -60 c0 -5 -8 -10 -17 -10 -15 0 -16 2 -3 10 19 12 20 12
20 0z m187 -6 c-3 -3 -12 -4 -19 -1 -8 3 -5 6 6 6 11 1 17 -2 13 -5z m2173 2
c0 -3 -4 -8 -10 -11 -5 -3 -10 -1 -10 4 0 6 5 11 10 11 6 0 10 -2 10 -4z
m-2873 -58 c-3 -7 -5 -2 -5 12 0 14 2 19 5 13 2 -7 2 -19 0 -25z m43 28 c0 -3
-4 -8 -10 -11 -5 -3 -10 -1 -10 4 0 6 5 11 10 11 6 0 10 -2 10 -4z m475 -25
c3 -5 1 -12 -5 -16 -5 -3 -10 1 -10 9 0 18 6 21 15 7z m2202 -13 c-3 -8 -6 -5
-6 6 -1 11 2 17 5 13 3 -3 4 -12 1 -19z m-2064 -25 c-7 -2 -19 -2 -25 0 -7 3
-2 5 12 5 14 0 19 -2 13 -5z m-210 -68 c-3 -9 -8 -14 -10 -11 -3 3 -2 9 2 15
9 16 15 13 8 -4z m-133 -55 c0 -5 -5 -10 -11 -10 -5 0 -7 5 -4 10 3 6 8 10 11
10 2 0 4 -4 4 -10z m2033 -7 c-7 -2 -19 -2 -25 0 -7 3 -2 5 12 5 14 0 19 -2
13 -5z m-2546 -45 c-3 -8 -6 -5 -6 6 -1 11 2 17 5 13 3 -3 4 -12 1 -19z m838
-38 c-3 -5 -12 -10 -18 -10 -7 0 -6 4 3 10 19 12 23 12 15 0z m822 -22 c-3 -8
-6 -5 -6 6 -1 11 2 17 5 13 3 -3 4 -12 1 -19z m930 0 c-3 -8 -6 -5 -6 6 -1 11
2 17 5 13 3 -3 4 -12 1 -19z m1040 -20 c-3 -8 -6 -5 -6 6 -1 11 2 17 5 13 3
-3 4 -12 1 -19z m250 -35 c-3 -10 -5 -4 -5 12 0 17 2 24 5 18 2 -7 2 -21 0
-30z m-3522 17 c3 -5 2 -10 -4 -10 -5 0 -13 5 -16 10 -3 6 -2 10 4 10 5 0 13
-4 16 -10z m2105 -20 c0 -5 -4 -10 -9 -10 -6 0 -13 5 -16 10 -3 6 1 10 9 10 9
0 16 -4 16 -10z m95 -21 c-8 -12 -35 -12 -35 0 0 11 22 20 33 14 4 -2 5 -9 2
-14z m-1861 -4 c-4 -8 -8 -15 -10 -15 -2 0 -4 7 -4 15 0 8 4 15 10 15 5 0 7
-7 4 -15z m2913 -17 c-3 -8 -6 -5 -6 6 -1 11 2 17 5 13 3 -3 4 -12 1 -19z
m-1087 -28 c0 -5 -2 -10 -4 -10 -3 0 -8 5 -11 10 -3 6 -1 10 4 10 6 0 11 -4
11 -10z m220 -20 c0 -5 -4 -10 -10 -10 -5 0 -10 5 -10 10 0 6 5 10 10 10 6 0
10 -4 10 -10z m-1100 -35 c0 -2 -7 -5 -15 -9 -9 -3 -15 0 -15 9 0 9 6 12 15 9
8 -4 15 -7 15 -9z m946 -43 c-4 -3 -11 0 -16 8 -15 24 -11 33 6 15 9 -9 13
-19 10 -23z m-69 -24 c-3 -8 -6 -5 -6 6 -1 11 2 17 5 13 3 -3 4 -12 1 -19z
m1360 -40 c-3 -7 -5 -2 -5 12 0 14 2 19 5 13 2 -7 2 -19 0 -25z m-1417 12 c0
-5 -2 -10 -4 -10 -3 0 -8 5 -11 10 -3 6 -1 10 4 10 6 0 11 -4 11 -10z m113
-17 c5 -26 4 -26 -9 -8 -16 22 -18 35 -5 35 5 0 11 -12 14 -27z m-27 -61 c-4
-3 -13 3 -21 14 -22 28 -18 37 6 13 11 -11 18 -23 15 -27z m-2546 8 c0 -5 -4
-10 -10 -10 -5 0 -10 5 -10 10 0 6 5 10 10 10 6 0 10 -4 10 -10z m1660 -77 c0
-13 -3 -13 -15 -3 -8 7 -15 16 -15 21 0 5 7 6 15 3 8 -4 15 -13 15 -21z
m-1075 7 c3 -5 1 -10 -4 -10 -6 0 -11 5 -11 10 0 6 2 10 4 10 3 0 8 -4 11 -10z
m890 0 c3 -5 1 -10 -4 -10 -6 0 -11 5 -11 10 0 6 2 10 4 10 3 0 8 -4 11 -10z
m952 -82 c-3 -8 -6 -5 -6 6 -1 11 2 17 5 13 3 -3 4 -12 1 -19z m1450 -10 c-3
-8 -6 -5 -6 6 -1 11 2 17 5 13 3 -3 4 -12 1 -19z m-1400 -44 c-3 -3 -12 -4
-19 -1 -8 3 -5 6 6 6 11 1 17 -2 13 -5z m-1962 -24 c3 -5 1 -10 -4 -10 -6 0
-11 5 -11 10 0 6 2 10 4 10 3 0 8 -4 11 -10z m1985 -55 c0 -8 -2 -15 -4 -15
-2 0 -6 7 -10 15 -3 8 -1 15 4 15 6 0 10 -7 10 -15z m1377 -207 c-3 -8 -6 -5
-6 6 -1 11 2 17 5 13 3 -3 4 -12 1 -19z m0 -40 c-3 -8 -6 -5 -6 6 -1 11 2 17
5 13 3 -3 4 -12 1 -19z m-1770 -364 c-3 -3 -12 -4 -19 -1 -8 3 -5 6 6 6 11 1
17 -2 13 -5z m-1282 -14 c3 -5 1 -10 -4 -10 -6 0 -11 5 -11 10 0 6 2 10 4 10
3 0 8 -4 11 -10z m-237 -17 c-16 -2 -40 -2 -55 0 -16 2 -3 4 27 4 30 0 43 -2
28 -4z m52 -3 c0 -5 -2 -10 -4 -10 -3 0 -8 5 -11 10 -3 6 -1 10 4 10 6 0 11
-4 11 -10z m1453 3 c-40 -2 -107 -2 -150 0 -43 1 -10 3 72 3 83 0 118 -2 78
-3z m-1998 -254 c-4 -6 2 -13 14 -16 27 -7 27 -23 1 -23 -23 0 -46 36 -27 43
18 8 19 8 12 -4z"/>
<path d="M2165 4120 c-16 -4 -51 -8 -77 -9 -26 0 -50 -5 -53 -11 -3 -5 -17
-10 -30 -10 -13 0 -26 -4 -29 -9 -3 -5 -18 -11 -33 -14 -30 -5 -95 -29 -103
-37 -3 -3 -23 -14 -45 -26 -22 -11 -51 -27 -65 -35 -35 -20 -200 -149 -200
-157 -1 -4 -21 -29 -46 -57 -154 -168 -244 -412 -244 -658 0 -54 4 -117 9
-140 5 -23 15 -68 22 -100 7 -32 16 -60 21 -63 4 -3 8 -14 8 -24 0 -27 68
-154 120 -225 55 -76 118 -137 208 -204 l72 -54 0 -129 c0 -101 3 -134 16
-153 9 -13 58 -51 109 -84 83 -53 95 -64 100 -95 4 -19 5 -167 3 -328 l-4
-293 -53 -100 c-58 -111 -70 -162 -51 -232 25 -93 92 -136 234 -150 l79 -8 17
-52 c9 -28 24 -63 34 -77 15 -24 22 -26 91 -26 72 0 75 1 98 33 13 17 29 47
36 66 16 48 39 71 72 71 45 0 139 40 177 75 35 31 36 34 36 111 1 87 -11 121
-71 210 -47 70 -55 145 -51 464 l3 252 41 37 c23 20 67 49 97 64 31 15 68 42
82 61 24 31 25 40 25 154 l0 121 96 66 c140 98 204 168 285 312 24 42 69 174
69 201 0 11 4 23 9 26 10 7 24 129 25 221 2 299 -148 618 -371 789 -73 56
-150 106 -163 106 -6 0 -10 3 -10 8 0 4 -15 13 -32 20 -18 7 -48 20 -66 28
-18 8 -41 14 -52 14 -10 0 -22 5 -25 10 -3 6 -19 10 -34 10 -15 0 -31 4 -36 9
-21 19 -295 36 -350 21z m287 -64 c82 -17 193 -53 233 -76 139 -79 165 -98
252 -187 61 -61 153 -180 153 -197 0 -2 16 -39 35 -80 19 -42 39 -93 44 -113
5 -21 13 -48 16 -60 5 -14 3 -23 -4 -23 -6 0 -11 -7 -11 -15 0 -8 -7 -15 -15
-15 -8 0 -15 7 -15 15 0 8 -4 15 -10 15 -5 0 -11 8 -11 18 -1 9 -5 -19 -10
-64 -17 -178 -125 -436 -205 -488 -13 -9 -24 -22 -24 -29 0 -15 -68 -53 -87
-49 -7 2 -13 -2 -13 -7 0 -6 -19 -28 -42 -51 -32 -30 -50 -40 -75 -40 -29 0
-67 -14 -83 -30 -3 -3 -18 -12 -35 -21 -29 -16 -32 -15 -80 11 -36 20 -69 53
-118 116 -81 105 -126 154 -143 154 -7 0 -15 6 -17 13 -3 6 -6 -3 -6 -20 -1
-22 4 -33 13 -33 9 0 17 -15 21 -39 4 -22 13 -45 21 -52 17 -14 18 -45 2 -56
-30 -19 -43 -71 -24 -101 4 -7 2 -12 -7 -12 -8 0 -17 7 -21 15 -3 8 -12 15
-21 15 -8 0 -33 29 -55 64 -57 91 -206 226 -232 210 -4 -3 -8 0 -8 7 0 7 -10
9 -25 7 -18 -4 -26 0 -31 14 -3 10 -11 18 -17 17 -24 -3 -58 14 -53 26 7 18
-56 35 -72 20 -9 -9 21 -46 33 -41 8 3 31 -11 51 -30 21 -19 44 -34 51 -34 7
0 13 -4 13 -10 0 -5 21 -23 46 -40 41 -29 44 -34 31 -48 -16 -19 -12 -42 8
-42 21 0 28 -19 10 -27 -10 -3 -21 0 -26 8 -8 12 -10 12 -18 0 -15 -24 -2 -41
28 -36 20 4 22 3 7 -3 -23 -10 -6 -25 18 -16 12 4 16 0 16 -16 0 -12 -3 -20
-7 -18 -5 3 -23 10 -42 18 -67 26 -237 119 -291 159 -58 44 -171 163 -211 224
-42 65 -68 144 -65 197 4 53 16 132 26 160 4 14 16 52 25 85 40 141 102 243
225 366 133 134 303 225 495 264 84 17 276 18 357 1z m-525 -1348 c-3 -8 -6
-5 -6 6 -1 11 2 17 5 13 3 -3 4 -12 1 -19z m338 -68 c3 -5 1 -10 -4 -10 -6 0
-11 5 -11 10 0 6 2 10 4 10 3 0 8 -4 11 -10z m412 -56 c-3 -3 -12 -4 -19 -1
-8 3 -5 6 6 6 11 1 17 -2 13 -5z m-497 -32 c0 -14 -11 -21 -26 -15 -8 3 -11 9
-8 14 7 11 34 12 34 1z m-84 -716 c16 -53 32 -96 36 -96 3 0 9 26 13 58 3 31
9 70 12 86 5 29 6 28 26 -18 l20 -48 13 29 12 28 3 -32 c1 -18 2 -39 3 -45 3
-41 46 -21 46 21 0 29 16 89 28 109 11 17 42 4 42 -17 0 -9 4 -21 9 -26 9 -10
31 -407 31 -557 0 -89 -19 -188 -42 -216 -18 -21 -88 -52 -119 -52 -14 0 -45
14 -68 30 -62 46 -77 90 -85 251 -3 73 -10 202 -16 284 -12 185 -13 318 -2
311 5 -3 22 -48 38 -100z m384 -261 c0 -142 -2 -164 -15 -159 -11 5 -15 -2
-16 -27 0 -28 -2 -30 -8 -14 -11 25 -21 335 -12 335 7 0 7 1 19 -120 5 -47 10
-83 11 -80 2 3 4 55 6 115 4 121 3 115 10 115 3 0 5 -74 5 -165z m-346 -544
c-7 -7 -55 42 -70 71 -31 60 -11 59 30 -2 24 -36 42 -67 40 -69z m219 12 c-10
-15 -22 -33 -28 -38 -17 -18 -82 -45 -107 -45 -18 0 -20 -2 -8 -10 13 -8 12
-10 -3 -10 -23 0 -51 26 -37 35 17 10 11 22 -12 29 -17 4 -20 8 -12 16 9 9 22
9 50 1 22 -6 46 -11 54 -11 13 0 13 1 0 10 -8 5 -12 10 -8 10 3 0 13 3 22 6
11 4 16 1 16 -10 0 -9 5 -16 10 -16 6 0 10 7 10 15 0 9 11 20 24 25 13 5 27
14 31 20 4 6 9 9 12 7 2 -3 -4 -18 -14 -34z m-229 -38 c3 -9 0 -15 -8 -15 -8
0 -16 7 -20 15 -3 9 0 15 8 15 8 0 16 -7 20 -15z"/>
<path d="M1630 2969 c0 -9 3 -18 6 -21 8 -9 44 3 44 14 0 6 -6 8 -14 5 -7 -3
-19 0 -25 6 -8 8 -11 7 -11 -4z"/>
<path d="M1860 2739 c0 -5 5 -7 10 -4 6 3 10 8 10 11 0 2 -4 4 -10 4 -5 0 -10
-5 -10 -11z"/>
<path d="M1800 2719 c0 -5 5 -7 10 -4 6 3 10 8 10 11 0 2 -4 4 -10 4 -5 0 -10
-5 -10 -11z"/>
<path d="M2657 2693 c-4 -3 -7 -11 -7 -17 0 -6 5 -5 12 2 6 6 9 14 7 17 -3 3
-9 2 -12 -2z"/>
<path d="M2580 2662 c-49 -33 -90 -66 -90 -73 0 -13 45 4 70 28 14 13 29 21
35 20 8 -3 45 29 45 40 0 9 -38 0 -60 -15z"/>
<path d="M2450 1472 c0 -18 4 -32 9 -32 5 0 8 11 7 25 -4 38 -16 43 -16 7z"/>
<path d="M1240 3415 c0 -14 5 -25 10 -25 6 0 10 11 10 25 0 14 -4 25 -10 25
-5 0 -10 -11 -10 -25z"/>
<path d="M4530 3195 c-7 -9 -8 -15 -2 -15 5 0 12 7 16 15 3 8 4 15 2 15 -2 0
-9 -7 -16 -15z"/>
<path d="M145 1300 c3 -5 8 -10 11 -10 2 0 4 5 4 10 0 6 -5 10 -11 10 -5 0 -7
-4 -4 -10z"/>
<path d="M145 949 c-4 -6 -5 -12 -2 -15 2 -3 7 2 10 11 7 17 1 20 -8 4z"/>
<path d="M155 850 c3 -5 8 -10 11 -10 2 0 4 5 4 10 0 6 -5 10 -11 10 -5 0 -7
-4 -4 -10z"/>
<path d="M200 335 c-11 -13 -10 -14 4 -9 9 3 16 10 16 15 0 13 -6 11 -20 -6z"/>
<path d="M236 275 c4 -8 10 -15 15 -15 5 0 9 7 9 15 0 8 -7 15 -15 15 -9 0
-12 -6 -9 -15z"/>
</g>
</svg>
